<?xml version="1.0" standalone="yes"?>

<svg version="1.1" viewBox="0.0 0.0 960.0 720.0" fill="none" stroke="none" stroke-linecap="square" stroke-miterlimit="10" xmlns="http://www.w3.org/2000/svg" xmlns:xlink="http://www.w3.org/1999/xlink"><clipPath id="p.0"><path d="m0 0l960.0 0l0 720.0l-960.0 0l0 -720.0z" clip-rule="nonzero"></path></clipPath><g clip-path="url(#p.0)"><path fill="#000000" fill-opacity="0.0" d="m0 0l960.0 0l0 720.0l-960.0 0z" fill-rule="nonzero"></path><path fill="#cc0000" d="m13.944881 249.71916l169.85828 0l0 27.874008l-169.85828 0z" fill-rule="nonzero"></path><path fill="#ffffff" d="m54.536564 265.57617l2.671875 0.84375q-0.609375 2.21875 -2.046875 3.3125q-1.421875 1.078125 -3.609375 1.078125q-2.703125 0 -4.453125 -1.84375q-1.734375 -1.859375 -1.734375 -5.078125q0 -3.390625 1.75 -5.265625q1.75 -1.875 4.609375 -1.875q2.5 0 4.046875 1.46875q0.9375 0.875 1.390625 2.5l-2.71875 0.65625q-0.234375 -1.0625 -1.0 -1.671875q-0.765625 -0.609375 -1.859375 -0.609375q-1.515625 0 -2.453125 1.09375q-0.9375 1.078125 -0.9375 3.5q0 2.578125 0.921875 3.6875q0.921875 1.09375 2.40625 1.09375q1.109375 0 1.890625 -0.6875q0.78125 -0.703125 1.125 -2.203125zm4.222946 -1.71875q0 -2.078125 0.625 -3.484375q0.453125 -1.046875 1.25 -1.859375q0.8125 -0.828125 1.765625 -1.234375q1.28125 -0.53125 2.9375038 -0.53125q3.0 0 4.796875 1.859375q1.8125 1.859375 1.8125 5.1875q0 3.296875 -1.796875 5.15625q-1.78125 1.859375 -4.78125 1.859375q-3.0312538 0 -4.828129 -1.84375q-1.78125 -1.859375 -1.78125 -5.109375zm2.828125 -0.09375q0 2.3125 1.0625 3.515625q1.078125 1.1875 2.7187538 1.1875q1.640625 0 2.6875 -1.1875q1.046875 -1.1875 1.046875 -3.546875q0 -2.34375 -1.03125 -3.484375q-1.015625 -1.15625 -2.703125 -1.15625q-1.7031288 0 -2.7500038 1.171875q-1.03125 1.15625 -1.03125 3.5zm12.261433 6.8125l0 -13.59375l2.671875 0l5.578125 9.078125l0 -9.078125l2.546875 0l0 13.59375l-2.765625 0l-5.46875 -8.875l0 8.875l-2.5625 0zm12.754196 -4.421875l2.671875 -0.265625q0.234375 1.34375 0.96875 1.984375q0.75 0.625 2.0 0.625q1.328125 0 2.0 -0.5625q0.671875 -0.5625 0.671875 -1.3125q0 -0.484375 -0.28125 -0.8125q-0.28125 -0.34375 -0.984375 -0.59375q-0.484375 -0.171875 -2.203125 -0.59375q-2.203125 -0.546875 -3.09375 -1.34375q-1.265625 -1.125 -1.265625 -2.734375q0 -1.046875 0.59375 -1.953125q0.59375 -0.90625 1.703125 -1.375q1.109375 -0.46875 2.671875 -0.46875q2.5625 0 3.859375 1.125q1.296875 1.109375 1.359375 2.984375l-2.75 0.125q-0.171875 -1.046875 -0.75 -1.5q-0.578125 -0.46875 -1.75 -0.46875q-1.1875 0 -1.875 0.5q-0.4375 0.3125 -0.4375 0.84375q0 0.484375 0.421875 0.828125q0.515625 0.421875 2.515625 0.90625q2.0 0.46875 2.953125 0.984375q0.96875 0.5 1.515625 1.375q0.546875 0.875 0.546875 2.15625q0 1.171875 -0.65625 2.203125q-0.640625 1.015625 -1.828125 1.515625q-1.1875 0.484375 -2.96875 0.484375q-2.578125 0 -3.96875 -1.1875q-1.375 -1.1875 -1.640625 -3.46875zm13.115448 -9.171875l2.75 0l0 7.359375q0 1.75 0.109375 2.265625q0.171875 0.84375 0.828125 1.359375q0.671875 0.5 1.8125 0.5q1.171875 0 1.765625 -0.484375q0.59375 -0.484375 0.71875 -1.171875q0.125 -0.703125 0.125 -2.3125l0 -7.515625l2.734375 0l0 7.140625q0 2.4375 -0.21875 3.453125q-0.21875 1.015625 -0.828125 1.71875q-0.59375 0.6875 -1.59375 1.109375q-1.0 0.40625 -2.609375 0.40625q-1.953125 0 -2.96875 -0.453125q-1.0 -0.453125 -1.59375 -1.171875q-0.578125 -0.71875 -0.75 -1.5q-0.28125 -1.171875 -0.28125 -3.453125l0 -7.25zm13.457321 13.59375l0 -13.59375l4.109375 0l2.46875 9.265625l2.4375 -9.265625l4.125 0l0 13.59375l-2.546875 0l0 -10.703125l-2.703125 10.703125l-2.640625 0l-2.703125 -10.703125l0 10.703125l-2.546875 0zm15.572044 0l0 -13.59375l10.09375 0l0 2.296875l-7.34375 0l0 3.015625l6.828125 0l0 2.28125l-6.828125 0l0 3.703125l7.609375 0l0 2.296875l-10.359375 0zm12.459198 0l0 -13.59375l5.78125 0q2.1875 0 3.171875 0.359375q0.984375 0.359375 1.578125 1.296875q0.59375 0.9375 0.59375 2.15625q0 1.53125 -0.90625 2.53125q-0.890625 0.984375 -2.6875 1.25q0.890625 0.515625 1.46875 1.140625q0.578125 0.625 1.5625 2.203125l1.671875 2.65625l-3.296875 0l-1.984375 -2.953125q-1.046875 -1.59375 -1.4375 -2.0q-0.390625 -0.421875 -0.828125 -0.5625q-0.4375 -0.15625 -1.390625 -0.15625l-0.546875 0l0 5.671875l-2.75 0zm2.75 -7.84375l2.03125 0q1.96875 0 2.453125 -0.171875q0.5 -0.171875 0.78125 -0.578125q0.28125 -0.40625 0.28125 -1.015625q0 -0.6875 -0.375 -1.109375q-0.359375 -0.421875 -1.03125 -0.53125q-0.328125 -0.046875 -2.0 -0.046875l-2.140625 0l0 3.453125z" fill-rule="nonzero"></path><path fill="#ff9900" d="m13.944881 277.59317l169.85828 0l0 27.874023l-169.85828 0z" fill-rule="nonzero"></path><path fill="#ffffff" d="m55.65411 298.4502l0 -13.59375l4.109375 0l2.46875 9.265625l2.4375038 -9.265625l4.125 0l0 13.59375l-2.546875 0l0 -10.703125l-2.7031288 10.703125l-2.640625 0l-2.703125 -10.703125l0 10.703125l-2.546875 0zm15.025181 -6.71875q0 -2.078125 0.625 -3.484375q0.453125 -1.046875 1.25 -1.859375q0.8125 -0.828125 1.765625 -1.234375q1.28125 -0.53125 2.9375 -0.53125q3.0 0 4.796875 1.859375q1.8125 1.859375 1.8125 5.1875q0 3.296875 -1.796875 5.15625q-1.78125 1.859375 -4.78125 1.859375q-3.03125 0 -4.828125 -1.84375q-1.78125 -1.859375 -1.78125 -5.109375zm2.828125 -0.09375q0 2.3125 1.0625 3.515625q1.078125 1.1875 2.71875 1.1875q1.640625 0 2.6875 -1.1875q1.046875 -1.1875 1.046875 -3.546875q0 -2.34375 -1.03125 -3.484375q-1.015625 -1.15625 -2.703125 -1.15625q-1.703125 0 -2.75 1.171875q-1.03125 1.15625 -1.03125 3.5zm12.245804 -6.78125l5.4375 0q1.609375 0 2.40625 0.140625q0.796875 0.125 1.421875 0.546875q0.625 0.421875 1.03125 1.140625q0.421875 0.703125 0.421875 1.59375q0 0.953125 -0.515625 1.75q-0.5 0.796875 -1.390625 1.1875q1.25 0.375 1.90625 1.25q0.671875 0.859375 0.671875 2.046875q0 0.921875 -0.4375 1.796875q-0.421875 0.875 -1.171875 1.40625q-0.75 0.515625 -1.84375 0.640625q-0.6875 0.078125 -3.3125 0.09375l-4.625 0l0 -13.59375zm2.75 2.25l0 3.15625l1.796875 0q1.609375 0 2.0 -0.046875q0.703125 -0.09375 1.09375 -0.484375q0.40625 -0.40625 0.40625 -1.0625q0 -0.640625 -0.34375 -1.03125q-0.34375 -0.390625 -1.03125 -0.484375q-0.40625 -0.046875 -2.34375 -0.046875l-1.578125 0zm0 5.421875l0 3.625l2.546875 0q1.484375 0 1.875 -0.078125q0.609375 -0.109375 1.0 -0.53125q0.390625 -0.4375 0.390625 -1.171875q0 -0.609375 -0.296875 -1.03125q-0.296875 -0.421875 -0.859375 -0.609375q-0.5625 -0.203125 -2.4375 -0.203125l-2.21875 0zm10.629196 5.921875l0 -13.59375l2.75 0l0 13.59375l-2.75 0zm5.339554 0l0 -13.484375l2.75 0l0 11.1875l6.828125 0l0 2.296875l-9.578125 0zm11.239731 0l0 -13.59375l2.75 0l0 13.59375l-2.75 0zm8.323929 0l0 -11.296875l-4.03125 0l0 -2.296875l10.8125 0l0 2.296875l-4.03125 0l0 11.296875l-2.75 0zm11.911606 0l0 -5.71875l-4.984375 -7.875l3.21875 0l3.203125 5.375l3.140625 -5.375l3.15625 0l-5.0 7.890625l0 5.703125l-2.734375 0z" fill-rule="nonzero"></path><path fill="#ffd966" d="m13.944881 305.4672l169.85828 0l0 27.874023l-169.85828 0z" fill-rule="nonzero"></path><path fill="#ffffff" d="m62.437458 326.3242l0 -13.59375l2.7500038 0l0 5.34375l5.375 0l0 -5.34375l2.75 0l0 13.59375l-2.75 0l0 -5.953125l-5.375 0l0 5.953125l-2.7500038 0zm13.457325 0l0 -13.59375l10.09375 0l0 2.296875l-7.34375 0l0 3.015625l6.828125 0l0 2.28125l-6.828125 0l0 3.703125l7.609375 0l0 2.296875l-10.359375 0zm24.709198 0l-2.984375 0l-1.1875 -3.09375l-5.4375 0l-1.125 3.09375l-2.90625 0l5.296875 -13.59375l2.90625 0l5.4375 13.59375zm-5.046875 -5.375l-1.875 -5.046875l-1.84375 5.046875l3.71875 0zm6.332321 5.375l0 -13.484375l2.75 0l0 11.1875l6.828125 0l0 2.296875l-9.578125 0zm14.380356 0l0 -11.296875l-4.03125 0l0 -2.296875l10.8125 0l0 2.296875l-4.03125 0l0 11.296875l-2.75 0zm8.349106 0l0 -13.59375l2.75 0l0 5.34375l5.3749924 0l0 -5.34375l2.75 0l0 13.59375l-2.75 0l0 -5.953125l-5.3749924 0l0 5.953125l-2.75 0z" fill-rule="nonzero"></path><path fill="#6aa84f" d="m13.944881 333.34122l169.85828 0l0 27.873993l-169.85828 0z" fill-rule="nonzero"></path><path fill="#ffffff" d="m48.959957 340.60446l5.4375 0q1.609375 0 2.40625 0.140625q0.796875 0.125 1.421875 0.546875q0.625 0.421875 1.03125 1.140625q0.421875 0.703125 0.421875 1.59375q0 0.953125 -0.515625 1.75q-0.5 0.796875 -1.390625 1.1875q1.25 0.375 1.90625 1.25q0.671875 0.859375 0.671875 2.046875q0 0.921875 -0.4375 1.796875q-0.421875 0.875 -1.171875 1.40625q-0.75 0.515625 -1.84375 0.640625q-0.6875 0.078125 -3.3125 0.09375l-4.625 0l0 -13.59375zm2.75 2.25l0 3.15625l1.796875 0q1.609375 0 2.0 -0.046875q0.703125 -0.09375 1.09375 -0.484375q0.40625 -0.40625 0.40625 -1.0625q0 -0.640625 -0.34375 -1.03125q-0.34375 -0.390625 -1.03125 -0.484375q-0.40625 -0.046875 -2.34375 -0.046875l-1.578125 0zm0 5.421875l0 3.625l2.546875 0q1.484375 0 1.875 -0.078125q0.609375 -0.109375 1.0 -0.53125q0.390625 -0.4375 0.390625 -1.171875q0 -0.609375 -0.296875 -1.03125q-0.296875 -0.421875 -0.859375 -0.609375q-0.5625 -0.203125 -2.4375 -0.203125l-2.21875 0zm10.691696 -7.671875l2.7500038 0l0 7.359375q0 1.75 0.109375 2.265625q0.171875 0.84375 0.828125 1.359375q0.671875 0.5 1.8125 0.5q1.171875 0 1.765625 -0.484375q0.59375 -0.484375 0.71875 -1.171875q0.125 -0.703125 0.125 -2.3125l0 -7.515625l2.734375 0l0 7.140625q0 2.4375 -0.21875 3.453125q-0.21875 1.015625 -0.828125 1.71875q-0.59375 0.6875 -1.59375 1.109375q-1.0 0.40625 -2.609375 0.40625q-1.953125 0 -2.96875 -0.453125q-1.0 -0.453125 -1.5937538 -1.171875q-0.578125 -0.71875 -0.75 -1.5q-0.28125 -1.171875 -0.28125 -3.453125l0 -7.25zm13.41045 13.59375l0 -13.59375l2.75 0l0 13.59375l-2.75 0zm5.339554 0l0 -13.484375l2.75 0l0 11.1875l6.828125 0l0 2.296875l-9.578125 0zm11.317856 -13.59375l5.015625 0q1.703125 0 2.59375 0.25q1.1875 0.359375 2.046875 1.265625q0.859375 0.890625 1.296875 2.203125q0.453125 1.296875 0.453125 3.203125q0 1.6875 -0.421875 2.890625q-0.515625 1.484375 -1.453125 2.40625q-0.71875 0.703125 -1.9375 1.09375q-0.90625 0.28125 -2.421875 0.28125l-5.171875 0l0 -13.59375zm2.75 2.296875l0 9.0l2.046875 0q1.140625 0 1.65625 -0.125q0.671875 -0.171875 1.109375 -0.5625q0.4375 -0.40625 0.71875 -1.3125q0.28125 -0.921875 0.28125 -2.5q0 -1.578125 -0.28125 -2.421875q-0.28125 -0.84375 -0.78125 -1.3125q-0.5 -0.46875 -1.265625 -0.640625q-0.578125 -0.125 -2.25 -0.125l-1.234375 0zm10.644821 11.296875l0 -13.59375l2.75 0l0 13.59375l-2.75 0zm5.292679 0l0 -13.59375l2.671875 0l5.578125 9.078125l0 -9.078125l2.546875 0l0 13.59375l-2.765625 0l-5.46875 -8.875l0 8.875l-2.5625 0zm19.769821 -5.0l0 -2.296875l5.921875 0l0 5.421875q-0.859375 0.828125 -2.5 1.46875q-1.640625 0.640625 -3.3125 0.640625q-2.140625 0 -3.734375 -0.890625q-1.578125 -0.90625 -2.375 -2.5625q-0.796875 -1.671875 -0.796875 -3.625q0 -2.125 0.890625 -3.78125q0.890625 -1.65625 2.609375 -2.53125q1.3125 -0.671875 3.25 -0.671875q2.546875 0 3.96875 1.0625q1.421875 1.0625 1.828125 2.9375l-2.734375 0.5q-0.28125 -1.0 -1.078125 -1.578125q-0.796875 -0.578125 -1.984375 -0.578125q-1.796875 0 -2.859375 1.140625q-1.0625 1.140625 -1.0625 3.390625q0 2.421875 1.078125 3.640625q1.078125 1.203125 2.828125 1.203125q0.859375 0 1.71875 -0.34375q0.875 -0.34375 1.5 -0.828125l0 -1.71875l-3.15625 0zm7.495804 0.578125l2.671875 -0.265625q0.234375 1.34375 0.96875 1.984375q0.75 0.625 2.0 0.625q1.328125 0 2.0 -0.5625q0.671875 -0.5625 0.671875 -1.3125q0 -0.484375 -0.28125 -0.8125q-0.28125 -0.34375 -0.984375 -0.59375q-0.484375 -0.171875 -2.203125 -0.59375q-2.203125 -0.546875 -3.09375 -1.34375q-1.265625 -1.125 -1.265625 -2.734375q0 -1.046875 0.59375 -1.953125q0.59375 -0.90625 1.703125 -1.375q1.109375 -0.46875 2.671875 -0.46875q2.5625 0 3.859375 1.125q1.296875 1.109375 1.359375 2.984375l-2.75 0.125q-0.171875 -1.046875 -0.75 -1.5q-0.578125 -0.46875 -1.75 -0.46875q-1.1875 0 -1.875 0.5q-0.4375 0.3125 -0.4375 0.84375q0 0.484375 0.421875 0.828125q0.515625 0.421875 2.515625 0.90625q2.0 0.46875 2.953125 0.984375q0.96875 0.5 1.515625 1.375q0.546875 0.875 0.546875 2.15625q0 1.171875 -0.65625 2.203125q-0.640625 1.015625 -1.828125 1.515625q-1.1875 0.484375 -2.96875 0.484375q-2.578125 0 -3.96875 -1.1875q-1.375 -1.1875 -1.640625 -3.46875z" fill-rule="nonzero"></path><path fill="#0000ff" d="m13.944881 361.2152l169.85828 0l0 27.874023l-169.85828 0z" fill-rule="nonzero"></path><path fill="#ffffff" d="m52.491787 382.07224l0 -13.59375l2.75 0l0 13.59375l-2.75 0zm5.292679 0l0 -13.59375l2.671875 0l5.578129 9.078125l0 -9.078125l2.546875 0l0 13.59375l-2.765625 0l-5.468754 -8.875l0 8.875l-2.5625 0zm13.4417 -13.59375l5.015625 0q1.703125 0 2.59375 0.25q1.1875 0.359375 2.046875 1.265625q0.859375 0.890625 1.296875 2.203125q0.453125 1.296875 0.453125 3.203125q0 1.6875 -0.421875 2.890625q-0.515625 1.484375 -1.453125 2.40625q-0.71875 0.703125 -1.9375 1.09375q-0.90625 0.28125 -2.421875 0.28125l-5.171875 0l0 -13.59375zm2.75 2.296875l0 9.0l2.046875 0q1.140625 0 1.65625 -0.125q0.671875 -0.171875 1.109375 -0.5625q0.4375 -0.40625 0.71875 -1.3125q0.28125 -0.921875 0.28125 -2.5q0 -1.578125 -0.28125 -2.421875q-0.28125 -0.84375 -0.78125 -1.3125q-0.5 -0.46875 -1.265625 -0.640625q-0.578125 -0.125 -2.25 -0.125l-1.234375 0zm10.707321 -2.296875l2.75 0l0 7.359375q0 1.75 0.109375 2.265625q0.171875 0.84375 0.828125 1.359375q0.671875 0.5 1.8125 0.5q1.171875 0 1.765625 -0.484375q0.59375 -0.484375 0.71875 -1.171875q0.125 -0.703125 0.125 -2.3125l0 -7.515625l2.734375 0l0 7.140625q0 2.4375 -0.21875 3.453125q-0.21875 1.015625 -0.828125 1.71875q-0.59375 0.6875 -1.59375 1.109375q-1.0 0.40625 -2.609375 0.40625q-1.953125 0 -2.96875 -0.453125q-1.0 -0.453125 -1.59375 -1.171875q-0.578125 -0.71875 -0.75 -1.5q-0.28125 -1.171875 -0.28125 -3.453125l0 -7.25zm12.801071 9.171875l2.671875 -0.265625q0.234375 1.34375 0.96875 1.984375q0.75 0.625 2.0 0.625q1.328125 0 2.0 -0.5625q0.671875 -0.5625 0.671875 -1.3125q0 -0.484375 -0.28125 -0.8125q-0.28125 -0.34375 -0.984375 -0.59375q-0.484375 -0.171875 -2.203125 -0.59375q-2.203125 -0.546875 -3.09375 -1.34375q-1.265625 -1.125 -1.265625 -2.734375q0 -1.046875 0.59375 -1.953125q0.59375 -0.90625 1.703125 -1.375q1.109375 -0.46875 2.671875 -0.46875q2.5625 0 3.859375 1.125q1.296875 1.109375 1.359375 2.984375l-2.75 0.125q-0.171875 -1.046875 -0.75 -1.5q-0.578125 -0.46875 -1.75 -0.46875q-1.1875 0 -1.875 0.5q-0.4375 0.3125 -0.4375 0.84375q0 0.484375 0.421875 0.828125q0.515625 0.421875 2.515625 0.90625q2.0 0.46875 2.953125 0.984375q0.96875 0.5 1.515625 1.375q0.546875 0.875 0.546875 2.15625q0 1.171875 -0.65625 2.203125q-0.640625 1.015625 -1.828125 1.515625q-1.1875 0.484375 -2.96875 0.484375q-2.578125 0 -3.96875 -1.1875q-1.375 -1.1875 -1.640625 -3.46875zm16.193573 4.421875l0 -11.296875l-4.03125 0l0 -2.296875l10.8125 0l0 2.296875l-4.03125 0l0 11.296875l-2.75 0zm8.349106 0l0 -13.59375l5.78125 0q2.1875 0 3.171875 0.359375q0.984375 0.359375 1.578125 1.296875q0.59375 0.9375 0.59375 2.15625q0 1.53125 -0.90625 2.53125q-0.890625 0.984375 -2.6875 1.25q0.890625 0.515625 1.46875 1.140625q0.578125 0.625 1.5625 2.203125l1.671875 2.65625l-3.296875 0l-1.984375 -2.953125q-1.046875 -1.59375 -1.4375 -2.0q-0.390625 -0.421875 -0.828125 -0.5625q-0.4375 -0.15625 -1.390625 -0.15625l-0.546875 0l0 5.671875l-2.75 0zm2.75 -7.84375l2.03125 0q1.96875 0 2.453125 -0.171875q0.5 -0.171875 0.78125 -0.578125q0.28125 -0.40625 0.28125 -1.015625q0 -0.6875 -0.375 -1.109375q-0.359375 -0.421875 -1.03125 -0.53125q-0.328125 -0.046875 -2.0 -0.046875l-2.140625 0l0 3.453125zm14.285446 7.84375l0 -5.71875l-4.984375 -7.875l3.21875 0l3.203125 5.375l3.140625 -5.375l3.15625 0l-5.0 7.890625l0 5.703125l-2.734375 0z" fill-rule="nonzero"></path><path fill="#ff9900" d="m218.8189 300.35434l169.85829 0l0 17.952759l-169.85829 0z" fill-rule="nonzero"></path><path fill="#cc0000" d="m218.8189 212.95801l169.85829 0l0 87.40158l-169.85829 0z" fill-rule="nonzero"></path><path fill="#ffd966" d="m218.8189 318.3071l169.85829 0l0 15.023621l-169.85829 0z" fill-rule="nonzero"></path><path fill="#0000ff" d="m218.8189 364.96326l169.85829 0l0 59.496063l-169.85829 0z" fill-rule="nonzero"></path><path fill="#6aa84f" d="m218.8189 333.34122l169.85829 0l0 31.62204l-169.85829 0z" fill-rule="nonzero"></path><path fill="#000000" fill-opacity="0.0" d="m248.76378 181.26772l109.98427 0l0 40.566925l-109.98427 0z" fill-rule="nonzero"></path><path fill="#f3f3f3" d="m273.73755 210.4243l0 -1.671875q-1.25 -0.15625 -2.046875 -0.546875q-0.78125 -0.40625 -1.359375 -1.3125q-0.5625 -0.90625 -0.65625 -2.203125l1.6875 -0.3125q0.1875 1.34375 0.6875 1.984375q0.703125 0.890625 1.6875 0.984375l0 -5.3125q-1.03125 -0.203125 -2.109375 -0.796875q-0.796875 -0.453125 -1.234375 -1.234375q-0.421875 -0.796875 -0.421875 -1.796875q0 -1.78125 1.265625 -2.875q0.84375 -0.75 2.5 -0.921875l0 -0.796875l0.984375 0l0 0.796875q1.453125 0.140625 2.3125 0.859375q1.09375 0.90625 1.3125 2.5l-1.734375 0.25q-0.140625 -0.984375 -0.609375 -1.5q-0.46875 -0.53125 -1.28125 -0.6875l0 4.8125q1.265625 0.3125 1.671875 0.484375q0.78125 0.34375 1.265625 0.84375q0.484375 0.484375 0.75 1.171875q0.265625 0.671875 0.265625 1.453125q0 1.734375 -1.109375 2.90625q-1.09375 1.15625 -2.84375 1.234375l0 1.6875l-0.984375 0zm0 -14.609375q-0.984375 0.140625 -1.546875 0.78125q-0.546875 0.625 -0.546875 1.484375q0 0.859375 0.46875 1.4375q0.484375 0.5625 1.625 0.90625l0 -4.609375zm0.984375 11.53125q0.96875 -0.125 1.59375 -0.84375q0.640625 -0.71875 0.640625 -1.78125q0 -0.921875 -0.453125 -1.46875q-0.4375 -0.546875 -1.78125 -0.984375l0 5.078125zm11.735107 1.125l-1.671875 0l0 -10.640625q-0.59375 0.578125 -1.578125 1.15625q-0.984375 0.5625 -1.765625 0.859375l0 -1.625q1.40625 -0.65625 2.453125 -1.59375q1.046875 -0.9375 1.484375 -1.8125l1.078125 0l0 13.65625zm6.656952 -7.375q-1.046875 -0.375 -1.546875 -1.078125q-0.5 -0.71875 -0.5 -1.703125q0 -1.484375 1.0625 -2.484375q1.078125 -1.015625 2.84375 -1.015625q1.78125 0 2.859375 1.03125q1.09375 1.03125 1.09375 2.515625q0 0.953125 -0.5 1.65625q-0.484375 0.703125 -1.5 1.078125q1.25 0.40625 1.90625 1.3125q0.65625 0.90625 0.65625 2.171875q0 1.75 -1.234375 2.9375q-1.234375 1.1875 -3.25 1.1875q-2.015625 0 -3.25 -1.1875q-1.234375 -1.203125 -1.234375 -2.984375q0 -1.328125 0.671875 -2.21875q0.671875 -0.890625 1.921875 -1.21875zm-0.328125 -2.828125q0 0.96875 0.609375 1.578125q0.625 0.609375 1.625 0.609375q0.953125 0 1.5625 -0.609375q0.625 -0.609375 0.625 -1.484375q0 -0.921875 -0.640625 -1.546875q-0.625 -0.625 -1.578125 -0.625q-0.953125 0 -1.578125 0.609375q-0.625 0.609375 -0.625 1.46875zm-0.546875 6.28125q0 0.71875 0.328125 1.390625q0.34375 0.65625 1.015625 1.03125q0.671875 0.359375 1.4375 0.359375q1.203125 0 1.984375 -0.765625q0.78125 -0.78125 0.78125 -1.96875q0 -1.203125 -0.8125 -1.984375q-0.796875 -0.796875 -2.0 -0.796875q-1.1875 0 -1.96875 0.78125q-0.765625 0.78125 -0.765625 1.953125zm8.672607 -2.78125q0 -2.421875 0.5 -3.890625q0.5 -1.46875 1.46875 -2.265625q0.984375 -0.796875 2.46875 -0.796875q1.09375 0 1.921875 0.4375q0.828125 0.4375 1.359375 1.28125q0.546875 0.828125 0.84375 2.015625q0.3125 1.1875 0.3125 3.21875q0 2.390625 -0.5 3.859375q-0.484375 1.46875 -1.46875 2.28125q-0.96875 0.796875 -2.46875 0.796875q-1.96875 0 -3.078125 -1.40625q-1.359375 -1.703125 -1.359375 -5.53125zm1.71875 0q0 3.34375 0.78125 4.453125q0.796875 1.109375 1.9375 1.109375q1.15625 0 1.9375 -1.109375q0.78125 -1.125 0.78125 -4.453125q0 -3.359375 -0.78125 -4.46875q-0.78125 -1.109375 -1.953125 -1.109375q-1.15625 0 -1.828125 0.984375q-0.875 1.234375 -0.875 4.59375zm9.594452 6.703125l0 -1.90625l1.90625 0l0 1.90625l-1.90625 0zm13.027069 -1.609375l0 1.609375l-8.984375 0q-0.015625 -0.609375 0.1875 -1.15625q0.34375 -0.921875 1.09375 -1.8125q0.765625 -0.890625 2.1875 -2.0625q2.21875 -1.8125 3.0 -2.875q0.78125 -1.0625 0.78125 -2.015625q0 -0.984375 -0.71875 -1.671875q-0.703125 -0.6875 -1.84375 -0.6875q-1.203125 0 -1.9375 0.734375q-0.71875 0.71875 -0.71875 2.0l-1.71875 -0.171875q0.171875 -1.921875 1.328125 -2.921875q1.15625 -1.015625 3.09375 -1.015625q1.953125 0 3.09375 1.09375q1.140625 1.078125 1.140625 2.6875q0 0.8125 -0.34375 1.609375q-0.328125 0.78125 -1.109375 1.65625q-0.765625 0.859375 -2.5625 2.390625q-1.5 1.265625 -1.9375 1.71875q-0.421875 0.4375 -0.703125 0.890625l6.671875 0zm2.203827 1.609375l0 -13.59375l5.109375 0q1.546875 0 2.484375 0.40625q0.953125 0.40625 1.484375 1.265625q0.53125 0.859375 0.53125 1.796875q0 0.875 -0.46875 1.65625q-0.46875 0.765625 -1.4375 1.234375q1.234375 0.359375 1.890625 1.234375q0.671875 0.875 0.671875 2.0625q0 0.953125 -0.40625 1.78125q-0.390625 0.8125 -0.984375 1.265625q-0.59375 0.4375 -1.5 0.671875q-0.890625 0.21875 -2.1875 0.21875l-5.1875 0zm1.796875 -7.890625l2.9375 0q1.203125 0 1.71875 -0.15625q0.6875 -0.203125 1.03125 -0.671875q0.359375 -0.46875 0.359375 -1.1875q0 -0.671875 -0.328125 -1.1875q-0.328125 -0.515625 -0.9375 -0.703125q-0.59375 -0.203125 -2.0625 -0.203125l-2.71875 0l0 4.109375zm0 6.28125l3.390625 0q0.875 0 1.21875 -0.0625q0.625 -0.109375 1.046875 -0.359375q0.421875 -0.265625 0.6875 -0.765625q0.265625 -0.5 0.265625 -1.140625q0 -0.765625 -0.390625 -1.328125q-0.390625 -0.5625 -1.078125 -0.78125q-0.6875 -0.234375 -1.984375 -0.234375l-3.15625 0l0 4.671875z" fill-rule="nonzero"></path><path fill="#000000" fill-opacity="0.0" d="m262.55118 152.04724l82.39371 0l0 40.56694l-82.39371 0z" fill-rule="nonzero"></path><path fill="#f3f3f3" d="m289.19333 177.80821l0 3.0625l-11.546875 0q0.1875 -1.734375 1.125 -3.28125q0.9375 -1.5625 3.703125 -4.125q2.234375 -2.078125 2.734375 -2.8125q0.6875 -1.015625 0.6875 -2.015625q0 -1.109375 -0.59375 -1.6875q-0.59375 -0.59375 -1.640625 -0.59375q-1.03125 0 -1.640625 0.625q-0.609375 0.609375 -0.703125 2.046875l-3.28125 -0.328125q0.296875 -2.71875 1.84375 -3.890625q1.546875 -1.1875 3.859375 -1.1875q2.546875 0 4.0 1.375q1.453125 1.359375 1.453125 3.40625q0 1.15625 -0.421875 2.203125q-0.40625 1.046875 -1.3125 2.203125q-0.59375 0.765625 -2.15625 2.203125q-1.5625 1.421875 -1.984375 1.890625q-0.40625 0.46875 -0.65625 0.90625l6.53125 0zm7.8007812 -14.1875q2.484375 0 3.890625 1.78125q1.6875 2.109375 1.6875 7.0q0 4.875 -1.6875 7.0q-1.40625 1.765625 -3.890625 1.765625q-2.515625 0 -4.046875 -1.921875q-1.53125 -1.9375 -1.53125 -6.890625q0 -4.84375 1.6875 -6.984375q1.390625 -1.75 3.890625 -1.75zm0 2.734375q-0.609375 0 -1.078125 0.375q-0.46875 0.375 -0.71875 1.359375q-0.34375 1.28125 -0.34375 4.3125q0 3.015625 0.296875 4.15625q0.3125 1.125 0.765625 1.5q0.46875 0.375 1.078125 0.375q0.59375 0 1.0625 -0.375q0.46875 -0.390625 0.71875 -1.375q0.34375 -1.265625 0.34375 -4.28125q0 -3.03125 -0.3125 -4.15625q-0.296875 -1.140625 -0.765625 -1.515625q-0.453125 -0.375 -1.046875 -0.375zm16.207031 14.515625l-3.296875 0l0 -12.40625q-1.8125 1.6875 -4.25 2.484375l0 -2.984375q1.28125 -0.421875 2.796875 -1.59375q1.515625 -1.1875 2.078125 -2.75l2.671875 0l0 17.25zm11.378906 0l0 -3.453125l-7.03125 0l0 -2.890625l7.453125 -10.90625l2.7656555 0l0 10.890625l2.125 0l0 2.90625l-2.125 0l0 3.453125l-3.1875305 0zm0 -6.359375l0 -5.859375l-3.953125 5.859375l3.953125 0z" fill-rule="nonzero"></path><path fill="#990000" d="m183.0 250.0l36.12599 -36.87401l0.24934387 87.12334l-35.57219 -22.748016z" fill-rule="nonzero"></path><path fill="#073763" d="m183.75066 361.5013l35.249344 3.4986877l0 59.501312l-35.750656 -35.375336z" fill-rule="nonzero"></path><path fill="#ff9900" d="m423.6929 292.80576l169.8583 0l0 27.874023l-169.8583 0z" fill-rule="nonzero"></path><path fill="#cc0000" d="m423.6929 141.76115l169.8583 0l0 151.05513l-169.8583 0z" fill-rule="nonzero"></path><path fill="#ffd966" d="m423.6929 320.7041l169.8583 0l0 20.314972l-169.8583 0z" fill-rule="nonzero"></path><path fill="#0000ff" d="m423.6929 389.1417l169.8583 0l0 123.11813l-169.8583 0z" fill-rule="nonzero"></path><path fill="#6aa84f" d="m423.6929 340.0l169.8583 0l0 49.165344l-169.8583 0z" fill-rule="nonzero"></path><path fill="#000000" fill-opacity="0.0" d="m453.6299 108.93307l109.98428 0l0 40.566933l-109.98428 0z" fill-rule="nonzero"></path><path fill="#f3f3f3" d="m486.3832 138.08966l0 -1.671875q-1.25 -0.15625 -2.046875 -0.546875q-0.78125 -0.40625 -1.359375 -1.3125q-0.5625 -0.90625 -0.65625 -2.203125l1.6875 -0.3125q0.1875 1.34375 0.6875 1.984375q0.703125 0.890625 1.6875 0.984375l0 -5.3125q-1.03125 -0.203125 -2.109375 -0.796875q-0.796875 -0.453125 -1.234375 -1.234375q-0.421875 -0.796875 -0.421875 -1.796875q0 -1.78125 1.265625 -2.875q0.84375 -0.75 2.5 -0.921875l0 -0.796875l0.984375 0l0 0.796875q1.453125 0.140625 2.3125 0.859375q1.09375 0.90625 1.3125 2.5l-1.734375 0.25q-0.140625 -0.984375 -0.609375 -1.5q-0.46875 -0.53125 -1.28125 -0.6875l0 4.8125q1.265625 0.3125 1.671875 0.484375q0.78125 0.34375 1.265625 0.84375q0.484375 0.484375 0.75 1.171875q0.265625 0.671875 0.265625 1.453125q0 1.734375 -1.109375 2.90625q-1.09375 1.15625 -2.84375 1.234375l0 1.6875l-0.984375 0zm0 -14.609375q-0.984375 0.140625 -1.546875 0.78125q-0.546875 0.625 -0.546875 1.484375q0 0.859375 0.46875 1.4375q0.484375 0.5625 1.625 0.90625l0 -4.609375zm0.984375 11.53125q0.96875 -0.125 1.59375 -0.84375q0.640625 -0.71875 0.640625 -1.78125q0 -0.921875 -0.453125 -1.46875q-0.4375 -0.546875 -1.78125 -0.984375l0 5.078125zm10.797577 1.125l0 -3.25l-5.90625 0l0 -1.53125l6.21875 -8.8125l1.359375 0l0 8.8125l1.84375 0l0 1.53125l-1.84375 0l0 3.25l-1.671875 0zm0 -4.78125l0 -6.140625l-4.25 6.140625l4.25 0zm5.0319824 1.1875l1.671875 -0.21875q0.28125 1.421875 0.96875 2.046875q0.703125 0.625 1.6875 0.625q1.1875 0 2.0 -0.8125q0.8125 -0.828125 0.8125 -2.03125q0 -1.140625 -0.765625 -1.890625q-0.75 -0.75 -1.90625 -0.75q-0.46875 0 -1.171875 0.1875l0.1875 -1.46875q0.15625 0.015625 0.265625 0.015625q1.0625 0 1.90625 -0.546875q0.859375 -0.5625 0.859375 -1.71875q0 -0.921875 -0.625 -1.515625q-0.609375 -0.609375 -1.59375 -0.609375q-0.96875 0 -1.625 0.609375q-0.640625 0.609375 -0.828125 1.84375l-1.671875 -0.296875q0.296875 -1.6875 1.375 -2.609375q1.09375 -0.921875 2.71875 -0.921875q1.109375 0 2.046875 0.484375q0.9375 0.46875 1.421875 1.296875q0.5 0.828125 0.5 1.75q0 0.890625 -0.46875 1.609375q-0.46875 0.71875 -1.40625 1.15625q1.21875 0.265625 1.875 1.15625q0.671875 0.875 0.671875 2.1875q0 1.78125 -1.296875 3.015625q-1.296875 1.234375 -3.28125 1.234375q-1.796875 0 -2.984375 -1.0625q-1.171875 -1.0625 -1.34375 -2.765625zm10.360107 0.03125l1.765625 -0.15625q0.1875 1.28125 0.890625 1.9375q0.71875 0.640625 1.71875 0.640625q1.203125 0 2.03125 -0.90625q0.84375 -0.90625 0.84375 -2.421875q0 -1.421875 -0.8125 -2.25q-0.796875 -0.828125 -2.09375 -0.828125q-0.796875 0 -1.453125 0.375q-0.640625 0.359375 -1.015625 0.953125l-1.578125 -0.203125l1.328125 -7.0l6.765625 0l0 1.609375l-5.4375 0l-0.734375 3.640625q1.234375 -0.84375 2.578125 -0.84375q1.78125 0 3.0 1.234375q1.234375 1.234375 1.234375 3.171875q0 1.84375 -1.078125 3.1875q-1.3125 1.65625 -3.578125 1.65625q-1.859375 0 -3.03125 -1.03125q-1.171875 -1.046875 -1.34375 -2.765625zm10.985046 3.5625l0 -13.59375l5.109375 0q1.546875 0 2.484375 0.40625q0.953125 0.40625 1.484375 1.265625q0.53125 0.859375 0.53125 1.796875q0 0.875 -0.46875 1.65625q-0.46875 0.765625 -1.4375 1.234375q1.234375 0.359375 1.890625 1.234375q0.671875 0.875 0.671875 2.0625q0 0.953125 -0.40625 1.78125q-0.390625 0.8125 -0.984375 1.265625q-0.59375 0.4375 -1.5 0.671875q-0.890625 0.21875 -2.1875 0.21875l-5.1875 0zm1.796875 -7.890625l2.9375 0q1.203125 0 1.71875 -0.15625q0.6875 -0.203125 1.03125 -0.671875q0.359375 -0.46875 0.359375 -1.1875q0 -0.671875 -0.328125 -1.1875q-0.328125 -0.515625 -0.9375 -0.703125q-0.59375 -0.203125 -2.0625 -0.203125l-2.71875 0l0 4.109375zm0 6.28125l3.390625 0q0.875 0 1.21875 -0.0625q0.625 -0.109375 1.046875 -0.359375q0.421875 -0.265625 0.6875 -0.765625q0.265625 -0.5 0.265625 -1.140625q0 -0.765625 -0.390625 -1.328125q-0.390625 -0.5625 -1.078125 -0.78125q-0.6875 -0.234375 -1.984375 -0.234375l-3.15625 0l0 4.671875z" fill-rule="nonzero"></path><path fill="#000000" fill-opacity="0.0" d="m467.4252 81.30577l82.39371 0l0 40.566933l-82.39371 0z" fill-rule="nonzero"></path><path fill="#f3f3f3" d="m494.06735 107.066734l0 3.0625l-11.546875 0q0.1875 -1.734375 1.125 -3.28125q0.9375 -1.5625 3.703125 -4.125q2.234375 -2.078125 2.734375 -2.8125q0.6875 -1.015625 0.6875 -2.015625q0 -1.109375 -0.59375 -1.6875q-0.59375 -0.59375 -1.640625 -0.59375q-1.03125 0 -1.640625 0.625q-0.609375 0.609375 -0.703125 2.046875l-3.28125 -0.328125q0.296875 -2.71875 1.84375 -3.890625q1.546875 -1.1875 3.859375 -1.1875q2.546875 0 4.0 1.375q1.453125 1.359375 1.453125 3.40625q0 1.15625 -0.421875 2.203125q-0.40625 1.046875 -1.3125 2.203125q-0.59375 0.765625 -2.15625 2.203125q-1.5625 1.421875 -1.984375 1.890625q-0.40625 0.46875 -0.65625 0.90625l6.53125 0zm7.8007812 -14.1875q2.484375 0 3.890625 1.78125q1.6875 2.109375 1.6875 7.0q0 4.875 -1.6875 7.0q-1.40625 1.765625 -3.890625 1.765625q-2.515625 0 -4.046875 -1.921875q-1.53125 -1.9375 -1.53125 -6.890625q0 -4.84375 1.6875 -6.984375q1.390625 -1.75 3.890625 -1.75zm0 2.734375q-0.609375 0 -1.078125 0.375q-0.46875 0.375 -0.71875 1.359375q-0.34375 1.28125 -0.34375 4.3125q0 3.015625 0.296875 4.15625q0.3125 1.125 0.765625 1.5q0.46875 0.375 1.078125 0.375q0.59375 0 1.0625 -0.375q0.46875 -0.390625 0.71875 -1.375q0.34375 -1.265625 0.34375 -4.28125q0 -3.03125 -0.3125 -4.15625q-0.296875 -1.140625 -0.765625 -1.515625q-0.453125 -0.375 -1.046875 -0.375zm16.207062 14.515625l-3.296875 0l0 -12.40625q-1.8125 1.6875 -4.2500305 2.484375l0 -2.984375q1.28125 -0.421875 2.7969055 -1.59375q1.515625 -1.1875 2.078125 -2.75l2.671875 0l0 17.25zm4.9101562 -13.890625l0 -3.0625l11.265625 0l0 2.390625q-1.390625 1.375 -2.84375 3.953125q-1.4375 2.5625 -2.1875 5.453125q-0.75 2.875 -0.75 5.15625l-3.171875 0q0.078125 -3.5625 1.46875 -7.265625q1.390625 -3.703125 3.71875 -6.625l-7.5 0z" fill-rule="nonzero"></path><path fill="#ff9900" d="m628.56696 320.7034l273.9527 0l0 59.496063l-273.9527 0z" fill-rule="nonzero"></path><path fill="#cc0000" d="m628.56696 87.538055l273.9527 0l0 233.16534l-273.9527 0z" fill-rule="nonzero"></path><path fill="#ffd966" d="m628.56696 380.18896l273.9527 0l0 40.566956l-273.9527 0z" fill-rule="nonzero"></path><path fill="#0000ff" d="m628.56696 535.39105l273.9527 0l0 159.24414l-273.9527 0z" fill-rule="nonzero"></path><path fill="#6aa84f" d="m628.56696 420.75592l273.9527 0l0 114.64563l-273.9527 0z" fill-rule="nonzero"></path><path fill="#000000" fill-opacity="0.0" d="m710.5512 46.97113l109.98425 0l0 40.566925l-109.98425 0z" fill-rule="nonzero"></path><path fill="#f3f3f3" d="m726.8207 78.26334l0 -2.109375q-1.59375 -0.1875 -2.578125 -0.703125q-0.984375 -0.515625 -1.71875 -1.640625q-0.71875 -1.140625 -0.828125 -2.78125l2.125 -0.40625q0.234375 1.703125 0.859375 2.5q0.890625 1.125 2.140625 1.25l0 -6.71875q-1.3125 -0.234375 -2.671875 -1.0q-1.0 -0.5625 -1.546875 -1.5625q-0.546875 -1.0 -0.546875 -2.265625q0 -2.25 1.59375 -3.640625q1.0625 -0.9375 3.171875 -1.140625l0 -1.015625l1.234375 0l0 1.015625q1.84375 0.171875 2.921875 1.078125q1.375 1.140625 1.65625 3.140625l-2.171875 0.328125q-0.1875 -1.234375 -0.78125 -1.890625q-0.59375 -0.671875 -1.625 -0.875l0 6.078125q1.59375 0.390625 2.109375 0.625q0.984375 0.421875 1.609375 1.046875q0.625 0.625 0.953125 1.484375q0.328125 0.84375 0.328125 1.84375q0 2.1875 -1.390625 3.65625q-1.390625 1.46875 -3.609375 1.578125l0 2.125l-1.234375 0zm0 -18.46875q-1.234375 0.1875 -1.953125 0.984375q-0.703125 0.796875 -0.703125 1.890625q0 1.078125 0.59375 1.8125q0.609375 0.71875 2.0625 1.15625l0 -5.84375zm1.234375 14.578125q1.234375 -0.15625 2.03125 -1.0625q0.8125 -0.921875 0.8125 -2.265625q0 -1.140625 -0.578125 -1.84375q-0.5625 -0.703125 -2.265625 -1.25l0 6.421875zm15.066406 1.421875l-2.109375 0l0 -13.4375q-0.75 0.71875 -2.0 1.453125q-1.234375 0.71875 -2.21875 1.078125l0 -2.03125q1.78125 -0.828125 3.09375 -2.015625q1.328125 -1.1875 1.875 -2.296875l1.359375 0l0 17.25zm6.5507812 0l0 -2.40625l2.390625 0l0 2.40625q0 1.328125 -0.46875 2.140625q-0.46875 0.8125 -1.484375 1.265625l-0.578125 -0.90625q0.65625 -0.296875 0.96875 -0.875q0.328125 -0.5625 0.359375 -1.625l-1.1875 0zm5.5273438 -8.46875q0 -3.046875 0.625 -4.90625q0.625 -1.859375 1.859375 -2.859375q1.234375 -1.015625 3.109375 -1.015625q1.390625 0 2.421875 0.5625q1.046875 0.546875 1.71875 1.59375q0.6875 1.046875 1.078125 2.5625q0.390625 1.5 0.390625 4.0625q0 3.015625 -0.625 4.875q-0.625 1.859375 -1.859375 2.875q-1.234375 1.015625 -3.125 1.015625q-2.484375 0 -3.890625 -1.78125q-1.703125 -2.15625 -1.703125 -6.984375zm2.171875 0q0 4.21875 0.984375 5.625q0.984375 1.40625 2.4375 1.40625q1.453125 0 2.4375 -1.40625q1.0 -1.40625 1.0 -5.625q0 -4.25 -1.0 -5.640625q-0.984375 -1.390625 -2.453125 -1.390625q-1.453125 0 -2.328125 1.21875q-1.078125 1.578125 -1.078125 5.8125zm11.175781 0q0 -3.046875 0.625 -4.90625q0.625 -1.859375 1.859375 -2.859375q1.234375 -1.015625 3.109375 -1.015625q1.390625 0 2.421875 0.5625q1.046875 0.546875 1.71875 1.59375q0.6875 1.046875 1.078125 2.5625q0.390625 1.5 0.390625 4.0625q0 3.015625 -0.625 4.875q-0.625 1.859375 -1.859375 2.875q-1.234375 1.015625 -3.125 1.015625q-2.484375 0 -3.890625 -1.78125q-1.703125 -2.15625 -1.703125 -6.984375zm2.171875 0q0 4.21875 0.984375 5.625q0.984375 1.40625 2.4375 1.40625q1.453125 0 2.4375 -1.40625q1.0 -1.40625 1.0 -5.625q0 -4.25 -1.0 -5.640625q-0.984375 -1.390625 -2.453125 -1.390625q-1.453125 0 -2.328125 1.21875q-1.078125 1.578125 -1.078125 5.8125zm22.253906 6.4375l0 2.03125l-11.34375 0q-0.03125 -0.765625 0.234375 -1.46875q0.4375 -1.15625 1.390625 -2.28125q0.953125 -1.125 2.765625 -2.609375q2.796875 -2.296875 3.78125 -3.625q0.984375 -1.34375 0.984375 -2.546875q0 -1.25 -0.90625 -2.109375q-0.890625 -0.859375 -2.328125 -0.859375q-1.515625 0 -2.4375 0.921875q-0.90625 0.90625 -0.921875 2.515625l-2.171875 -0.21875q0.21875 -2.421875 1.671875 -3.6875q1.453125 -1.28125 3.90625 -1.28125q2.46875 0 3.90625 1.375q1.453125 1.359375 1.453125 3.390625q0 1.03125 -0.421875 2.03125q-0.421875 1.0 -1.40625 2.109375q-0.96875 1.09375 -3.25 3.015625q-1.890625 1.59375 -2.4375 2.15625q-0.53125 0.5625 -0.890625 1.140625l8.421875 0zm3.0351562 2.03125l0 -17.1875l6.4375 0q1.96875 0 3.15625 0.53125q1.1875 0.515625 1.859375 1.609375q0.6875 1.078125 0.6875 2.265625q0 1.09375 -0.609375 2.078125q-0.59375 0.96875 -1.796875 1.5625q1.5625 0.453125 2.390625 1.5625q0.84375 1.09375 0.84375 2.59375q0 1.203125 -0.515625 2.25q-0.5 1.03125 -1.25 1.59375q-0.75 0.5625 -1.890625 0.859375q-1.125 0.28125 -2.765625 0.28125l-6.546875 0zm2.265625 -9.96875l3.71875 0q1.515625 0 2.171875 -0.1875q0.859375 -0.265625 1.296875 -0.859375q0.4375 -0.59375 0.4375 -1.5q0 -0.859375 -0.40625 -1.5q-0.40625 -0.65625 -1.171875 -0.890625q-0.765625 -0.25 -2.609375 -0.25l-3.4375 0l0 5.1875zm0 7.9375l4.28125 0q1.09375 0 1.546875 -0.078125q0.78125 -0.140625 1.3125 -0.46875q0.53125 -0.328125 0.859375 -0.953125q0.34375 -0.625 0.34375 -1.453125q0 -0.953125 -0.5 -1.65625q-0.484375 -0.71875 -1.359375 -1.0q-0.875 -0.296875 -2.515625 -0.296875l-3.96875 0l0 5.90625z" fill-rule="nonzero"></path><path fill="#000000" fill-opacity="0.0" d="m710.53546 14.4042l110.01575 0l0 40.566933l-110.01575 0z" fill-rule="nonzero"></path><path fill="#f3f3f3" d="m747.5934 41.64454l0 3.703125l-13.953125 0q0.234375 -2.09375 1.359375 -3.96875q1.140625 -1.875 4.484375 -4.984375q2.6875 -2.5 3.296875 -3.390625q0.8125 -1.2343731 0.8125 -2.437498q0 -1.328125 -0.71875 -2.046875q-0.703125 -0.71875 -1.96875 -0.71875q-1.25 0 -1.984375 0.75q-0.734375 0.75 -0.84375 2.5l-3.96875 -0.40625q0.359375 -3.28125 2.21875 -4.703125q1.875 -1.4375 4.671875 -1.4375q3.078125 0 4.828125 1.65625q1.765625 1.65625 1.765625 4.125q0 1.390625 -0.5 2.671873q-0.5 1.265625 -1.59375 2.640625q-0.71875 0.921875 -2.609375 2.65625q-1.890625 1.734375 -2.390625 2.296875q-0.5 0.5625 -0.8125 1.09375l7.90625 0zm9.592163 -17.140623q3.015625 0 4.71875 2.15625q2.03125 2.546875 2.03125 8.453123q0 5.890625 -2.046875 8.46875q-1.6875 2.125 -4.703125 2.125q-3.03125 0 -4.890625 -2.328125q-1.84375 -2.34375 -1.84375 -8.3125q0 -5.859373 2.03125 -8.437498q1.6875 -2.125 4.703125 -2.125zm0 3.296875q-0.71875 0 -1.28125 0.46875q-0.5625 0.453125 -0.875 1.640625q-0.421875 1.546875 -0.421875 5.203123q0 3.65625 0.375 5.015625q0.375 1.359375 0.921875 1.8125q0.5625 0.453125 1.28125 0.453125q0.734375 0 1.296875 -0.453125q0.5625 -0.453125 0.875 -1.65625q0.40625 -1.515625 0.40625 -5.171875q0 -3.656248 -0.375 -5.015623q-0.359375 -1.375 -0.921875 -1.828125q-0.546875 -0.46875 -1.28125 -0.46875zm23.029663 13.843748l0 3.703125l-13.953125 0q0.234375 -2.09375 1.359375 -3.96875q1.140625 -1.875 4.484375 -4.984375q2.6875 -2.5 3.296875 -3.390625q0.8125 -1.2343731 0.8125 -2.437498q0 -1.328125 -0.71875 -2.046875q-0.703125 -0.71875 -1.96875 -0.71875q-1.25 0 -1.984375 0.75q-0.734375 0.75 -0.84375 2.5l-3.96875 -0.40625q0.359375 -3.28125 2.21875 -4.703125q1.875 -1.4375 4.671875 -1.4375q3.078125 0 4.828125 1.65625q1.765625 1.65625 1.765625 4.125q0 1.390625 -0.5 2.671873q-0.5 1.265625 -1.59375 2.640625q-0.71875 0.921875 -2.609375 2.65625q-1.890625 1.734375 -2.390625 2.296875q-0.5 0.5625 -0.8125 1.09375l7.90625 0zm9.592163 -17.140623q3.015625 0 4.71875 2.15625q2.03125 2.546875 2.03125 8.453123q0 5.890625 -2.046875 8.46875q-1.6875 2.125 -4.703125 2.125q-3.03125 0 -4.890625 -2.328125q-1.84375 -2.34375 -1.84375 -8.3125q0 -5.859373 2.03125 -8.437498q1.6875 -2.125 4.703125 -2.125zm0 3.296875q-0.71875 0 -1.28125 0.46875q-0.5625 0.453125 -0.875 1.640625q-0.421875 1.546875 -0.421875 5.203123q0 3.65625 0.375 5.015625q0.375 1.359375 0.921875 1.8125q0.5625 0.453125 1.28125 0.453125q0.734375 0 1.296875 -0.453125q0.5625 -0.453125 0.875 -1.65625q0.40625 -1.515625 0.40625 -5.171875q0 -3.656248 -0.375 -5.015623q-0.359375 -1.375 -0.921875 -1.828125q-0.546875 -0.46875 -1.28125 -0.46875z" fill-rule="nonzero"></path><path fill="#7f6000" d="m183.75066 277.5013l35.375336 22.498688l0.12335205 18.375336l-35.62468 -13.126007z" fill-rule="nonzero"></path><path fill="#bf9000" d="m183.75066 305.24933l35.375336 13.0l-0.12599182 15.126007l-35.249344 0z" fill-rule="nonzero"></path><path fill="#38761d" d="m183.75066 333.37534l35.375336 0l-0.12599182 31.624664l-35.375336 -3.4986877z" fill-rule="nonzero"></path><path fill="#990000" d="m388.5013 214.0l35.498688 -72.49869l0.50131226 151.49869l-36.0 7.2493286z" fill-rule="nonzero"></path><path fill="#7f6000" d="m388.24933 299.75067l36.0 -6.7506714l0 27.249329l-35.748016 0.25198364z" fill-rule="nonzero"></path><path fill="#bf9000" d="m388.5013 320.5013l35.748016 -0.25198364l0 19.501343l-35.498657 -6.501343z" fill-rule="nonzero"></path><path fill="#38761d" d="m388.5013 333.12598l36.0 6.624695l-0.50131226 49.75064l-35.498688 -24.0z" fill-rule="nonzero"></path><path fill="#073763" d="m388.24933 365.0l35.692932 24.141724l0.057739258 123.107605l-35.75067 -88.0z" fill-rule="nonzero"></path><path fill="#990000" d="m593.06824 141.7664l35.682434 -54.26509l0 233.12335l-35.375366 -27.75064z" fill-rule="nonzero"></path><path fill="#7f6000" d="m593.50134 292.87402l35.37268 27.75064l0.62731934 59.876648l-36.501343 -60.501312z" fill-rule="nonzero"></path><path fill="#bf9000" d="m593.0 320.0l37.0 60.501312l-1.0 40.498688l-36.0 -81.24933z" fill-rule="nonzero"></path><path fill="#38761d" d="m593.48553 340.0l36.01581 81.0l-0.87664795 114.24933l-35.624695 -145.74802z" fill-rule="nonzero"></path><path fill="#073763" d="m593.0 389.14172l35.75067 146.48297l0 158.87665l-35.501343 -182.25201z" fill-rule="nonzero"></path><path fill="#000000" fill-opacity="0.0" d="m630.2493 192.52231l141.7323 0l0 37.95276l-141.7323 0z" fill-rule="nonzero"></path><path fill="#f3f3f3" d="m649.6379 219.82806l0 -6.546875q-3.0625 -0.875 -4.5 -2.640625q-1.421875 -1.78125 -1.421875 -4.3125q0 -2.5625 1.609375 -4.296875q1.625 -1.75 4.3125 -2.015625l0 -1.546875l2.265625 0l0 1.546875q2.484375 0.296875 3.953125 1.703125q1.46875 1.390625 1.875 3.734375l-3.953125 0.515625q-0.359375 -1.84375 -1.875 -2.5l0 6.109375q3.75 1.015625 5.109375 2.640625q1.359375 1.609375 1.359375 4.140625q0 2.828125 -1.71875 4.765625q-1.703125 1.9375 -4.75 2.375l0 2.921875l-2.265625 0l0 -2.84375q-2.703125 -0.328125 -4.390625 -2.015625q-1.6875 -1.6875 -2.15625 -4.765625l4.078125 -0.4375q0.25 1.25 0.9375 2.15625q0.6875 0.90625 1.53125 1.3125zm0 -16.40625q-0.921875 0.3125 -1.46875 1.0625q-0.546875 0.75 -0.546875 1.65625q0 0.828125 0.5 1.546875q0.5 0.703125 1.515625 1.140625l0 -5.40625zm2.265625 16.625q1.171875 -0.21875 1.90625 -1.078125q0.734375 -0.875 0.734375 -2.046875q0 -1.046875 -0.625 -1.796875q-0.609375 -0.765625 -2.015625 -1.171875l0 6.09375zm9.09375 -2.90625l4.25 -0.515625q0.203125 1.625 1.09375 2.484375q0.890625 0.859375 2.15625 0.859375q1.359375 0 2.28125 -1.03125q0.9375 -1.03125 0.9375 -2.78125q0 -1.65625 -0.890625 -2.625q-0.890625 -0.96875 -2.171875 -0.96875q-0.84375 0 -2.015625 0.328125l0.484375 -3.578125q1.78125 0.046875 2.71875 -0.765625q0.9375 -0.828125 0.9375 -2.1875q0 -1.15625 -0.6875 -1.84375q-0.6875 -0.6875 -1.828125 -0.6875q-1.125 0 -1.921875 0.78125q-0.796875 0.78125 -0.96875 2.28125l-4.046875 -0.6875q0.421875 -2.078125 1.265625 -3.3125q0.859375 -1.25 2.375 -1.953125q1.53125 -0.71875 3.421875 -0.71875q3.234375 0 5.1875 2.0625q1.609375 1.6875 1.609375 3.8125q0 3.015625 -3.296875 4.8125q1.96875 0.421875 3.140625 1.890625q1.1875 1.46875 1.1875 3.546875q0 3.015625 -2.203125 5.140625q-2.203125 2.125 -5.484375 2.125q-3.109375 0 -5.15625 -1.78125q-2.046875 -1.796875 -2.375 -4.6875zm18.046875 0.78125l4.25 -0.46875q0.15625 1.296875 0.8125 1.921875q0.65625 0.625 1.734375 0.625q1.359375 0 2.3125 -1.25q0.953125 -1.25 1.21875 -5.1875q-1.65625 1.921875 -4.140625 1.921875q-2.703125 0 -4.671875 -2.078125q-1.953125 -2.09375 -1.953125 -5.4375q0 -3.484375 2.0625 -5.609375q2.078125 -2.140625 5.28125 -2.140625q3.484375 0 5.71875 2.703125q2.234375 2.6875 2.234375 8.859375q0 6.28125 -2.328125 9.0625q-2.328125 2.78125 -6.0625 2.78125q-2.6875 0 -4.34375 -1.421875q-1.65625 -1.4375 -2.125 -4.28125zm9.9375 -9.59375q0 -2.125 -0.984375 -3.296875q-0.96875 -1.171875 -2.25 -1.171875q-1.21875 0 -2.03125 0.96875q-0.796875 0.953125 -0.796875 3.140625q0 2.21875 0.875 3.265625q0.875 1.03125 2.1875 1.03125q1.265625 0 2.125 -1.0q0.875 -1.0 0.875 -2.9375zm7.765625 -3.625l0 -4.078125l15.015625 0l0 3.1875q-1.859375 1.828125 -3.78125 5.25q-1.921875 3.421875 -2.9375 7.28125q-1.0 3.84375 -0.984375 6.875l-4.234375 0q0.109375 -4.75 1.953125 -9.6875q1.859375 -4.9375 4.953125 -8.828125l-9.984375 0zm18.734375 18.515625l0 -4.390625l4.390625 0l0 4.390625l-4.390625 0zm11.71875 -12.359375q-1.703125 -0.71875 -2.484375 -1.96875q-0.765625 -1.265625 -0.765625 -2.765625q0 -2.5625 1.78125 -4.234375q1.796875 -1.671875 5.09375 -1.671875q3.265625 0 5.0625 1.671875q1.8125 1.671875 1.8125 4.234375q0 1.59375 -0.828125 2.84375q-0.828125 1.234375 -2.328125 1.890625q1.90625 0.765625 2.890625 2.234375q1.0 1.46875 1.0 3.390625q0 3.171875 -2.03125 5.15625q-2.015625 1.984375 -5.375 1.984375q-3.125 0 -5.203125 -1.640625q-2.453125 -1.9375 -2.453125 -5.3125q0 -1.859375 0.921875 -3.40625q0.921875 -1.5625 2.90625 -2.40625zm0.90625 -4.421875q0 1.3125 0.734375 2.046875q0.75 0.734375 1.984375 0.734375q1.25 0 2.0 -0.734375q0.75 -0.75 0.75 -2.0625q0 -1.234375 -0.75 -1.96875q-0.734375 -0.75 -1.953125 -0.75q-1.265625 0 -2.015625 0.75q-0.75 0.75 -0.75 1.984375zm-0.40625 9.8125q0 1.8125 0.921875 2.828125q0.9375 1.015625 2.328125 1.015625q1.359375 0 2.25 -0.96875q0.890625 -0.984375 0.890625 -2.828125q0 -1.609375 -0.90625 -2.578125q-0.90625 -0.984375 -2.296875 -0.984375q-1.609375 0 -2.40625 1.109375q-0.78125 1.109375 -0.78125 2.40625zm14.515625 -15.9375l9.15625 0q2.71875 0 4.046875 0.234375q1.34375 0.21875 2.390625 0.9375q1.0625 0.71875 1.765625 1.921875q0.703125 1.1875 0.703125 2.671875q0 1.609375 -0.875 2.953125q-0.859375 1.34375 -2.34375 2.015625q2.09375 0.609375 3.21875 2.078125q1.125 1.46875 1.125 3.453125q0 1.5625 -0.734375 3.046875q-0.71875 1.46875 -1.984375 2.359375q-1.25 0.875 -3.09375 1.078125q-1.15625 0.125 -5.578125 0.15625l-7.796875 0l0 -22.90625zm4.625 3.8125l0 5.296875l3.03125 0q2.703125 0 3.359375 -0.078125q1.1875 -0.140625 1.859375 -0.8125q0.6875 -0.6875 0.6875 -1.796875q0 -1.0625 -0.59375 -1.71875q-0.578125 -0.671875 -1.734375 -0.8125q-0.6875 -0.078125 -3.953125 -0.078125l-2.65625 0zm0 9.109375l0 6.125l4.28125 0q2.5 0 3.171875 -0.140625q1.03125 -0.1875 1.671875 -0.90625q0.65625 -0.734375 0.65625 -1.953125q0 -1.03125 -0.5 -1.75q-0.5 -0.71875 -1.453125 -1.046875q-0.9375 -0.328125 -4.09375 -0.328125l-3.734375 0z" fill-rule="nonzero"></path><path fill="#000000" fill-opacity="0.0" d="m630.2493 332.12335l141.7323 0l0 37.95276l-141.7323 0z" fill-rule="nonzero"></path><path fill="#f3f3f3" d="m667.43475 359.4291l0 -6.546875q-3.0625 -0.875 -4.5 -2.640625q-1.421875 -1.78125 -1.421875 -4.3125q0 -2.5625 1.609375 -4.296875q1.625 -1.75 4.3125 -2.015625l0 -1.546875l2.265625 0l0 1.546875q2.484375 0.296875 3.953125 1.703125q1.46875 1.390625 1.875 3.734375l-3.953125 0.515625q-0.359375 -1.84375 -1.875 -2.5l0 6.109375q3.75 1.015625 5.109375 2.640625q1.359375 1.609375 1.359375 4.140625q0 2.828125 -1.71875 4.765625q-1.703125 1.9375 -4.75 2.375l0 2.921875l-2.265625 0l0 -2.84375q-2.703125 -0.328125 -4.390625 -2.015625q-1.6875 -1.6875 -2.15625 -4.765625l4.078125 -0.4375q0.25 1.25 0.9375 2.15625q0.6875 0.90625 1.53125 1.3125zm0 -16.40625q-0.921875 0.3125 -1.46875 1.0625q-0.546875 0.75 -0.546875 1.65625q0 0.828125 0.5 1.546875q0.5 0.703125 1.515625 1.140625l0 -5.40625zm2.265625 16.625q1.171875 -0.21875 1.90625 -1.078125q0.734375 -0.875 0.734375 -2.046875q0 -1.046875 -0.625 -1.796875q-0.609375 -0.765625 -2.015625 -1.171875l0 6.09375zm9.25 -15.34375l0 -4.078125l15.015625 0l0 3.1875q-1.859375 1.828125 -3.78125 5.25q-1.921875 3.421875 -2.9375 7.28125q-1.0 3.84375 -0.984375 6.875l-4.234375 0q0.109375 -4.75 1.953125 -9.6875q1.859375 -4.9375 4.953125 -8.828125l-9.984375 0zm32.671875 1.21875l-4.25 0.46875q-0.15625 -1.3125 -0.8125 -1.9375q-0.65625 -0.625 -1.703125 -0.625q-1.390625 0 -2.359375 1.25q-0.953125 1.25 -1.203125 5.203125q1.640625 -1.9375 4.078125 -1.9375q2.75 0 4.703125 2.09375q1.96875 2.09375 1.96875 5.40625q0 3.515625 -2.0625 5.640625q-2.0625 2.125 -5.296875 2.125q-3.46875 0 -5.703125 -2.6875q-2.234375 -2.703125 -2.234375 -8.84375q0 -6.296875 2.328125 -9.078125q2.328125 -2.78125 6.046875 -2.78125q2.609375 0 4.3125 1.46875q1.71875 1.453125 2.1875 4.234375zm-9.953125 9.578125q0 2.140625 0.984375 3.3125q0.984375 1.15625 2.25 1.15625q1.21875 0 2.03125 -0.953125q0.8125 -0.953125 0.8125 -3.125q0 -2.234375 -0.875 -3.265625q-0.875 -1.046875 -2.1875 -1.046875q-1.265625 0 -2.140625 1.0q-0.875 0.984375 -0.875 2.921875zm13.8125 7.71875l0 -4.390625l4.390625 0l0 4.390625l-4.390625 0zm19.1875 0l-4.390625 0l0 -16.546875q-2.40625 2.25 -5.671875 3.328125l0 -3.984375q1.71875 -0.5625 3.734375 -2.125q2.015625 -1.578125 2.765625 -3.671875l3.5625 0l0 23.0zm7.546875 -22.90625l9.15625 0q2.71875 0 4.046875 0.234375q1.34375 0.21875 2.390625 0.9375q1.0625 0.71875 1.765625 1.921875q0.703125 1.1875 0.703125 2.671875q0 1.609375 -0.875 2.953125q-0.859375 1.34375 -2.34375 2.015625q2.09375 0.609375 3.21875 2.078125q1.125 1.46875 1.125 3.453125q0 1.5625 -0.734375 3.046875q-0.71875 1.46875 -1.984375 2.359375q-1.25 0.875 -3.09375 1.078125q-1.15625 0.125 -5.578125 0.15625l-7.796875 0l0 -22.90625zm4.625 3.8125l0 5.296875l3.03125 0q2.703125 0 3.359375 -0.078125q1.1875 -0.140625 1.859375 -0.8125q0.6875 -0.6875 0.6875 -1.796875q0 -1.0625 -0.59375 -1.71875q-0.578125 -0.671875 -1.734375 -0.8125q-0.6875 -0.078125 -3.953125 -0.078125l-2.65625 0zm0 9.109375l0 6.125l4.28125 0q2.5 0 3.171875 -0.140625q1.03125 -0.1875 1.671875 -0.90625q0.65625 -0.734375 0.65625 -1.953125q0 -1.03125 -0.5 -1.75q-0.5 -0.71875 -1.453125 -1.046875q-0.9375 -0.328125 -4.09375 -0.328125l-3.734375 0z" fill-rule="nonzero"></path><path fill="#000000" fill-opacity="0.0" d="m630.2493 381.5013l141.7323 0l0 37.95276l-141.7323 0z" fill-rule="nonzero"></path><path fill="#f3f3f3" d="m667.43475 408.80707l0 -6.546875q-3.0625 -0.875 -4.5 -2.640625q-1.421875 -1.78125 -1.421875 -4.3125q0 -2.5625 1.609375 -4.296875q1.625 -1.75 4.3125 -2.015625l0 -1.546875l2.265625 0l0 1.546875q2.484375 0.296875 3.953125 1.703125q1.46875 1.390625 1.875 3.734375l-3.953125 0.515625q-0.359375 -1.84375 -1.875 -2.5l0 6.109375q3.75 1.015625 5.109375 2.640625q1.359375 1.609375 1.359375 4.140625q0 2.828125 -1.71875 4.765625q-1.703125 1.9375 -4.75 2.375l0 2.921875l-2.265625 0l0 -2.84375q-2.703125 -0.328125 -4.390625 -2.015625q-1.6875 -1.6875 -2.15625 -4.765625l4.078125 -0.4375q0.25 1.25 0.9375 2.15625q0.6875 0.90625 1.53125 1.3125zm0 -16.40625q-0.921875 0.3125 -1.46875 1.0625q-0.546875 0.75 -0.546875 1.65625q0 0.828125 0.5 1.546875q0.5 0.703125 1.515625 1.140625l0 -5.40625zm2.265625 16.625q1.171875 -0.21875 1.90625 -1.078125q0.734375 -0.875 0.734375 -2.046875q0 -1.046875 -0.625 -1.796875q-0.609375 -0.765625 -2.015625 -1.171875l0 6.09375zm17.859375 3.171875l0 -4.609375l-9.375 0l0 -3.84375l9.9375 -14.546875l3.6875 0l0 14.53125l2.84375 0l0 3.859375l-2.84375 0l0 4.609375l-4.25 0zm0 -8.46875l0 -7.828125l-5.265625 7.828125l5.265625 0zm12.953125 -3.890625q-1.703125 -0.71875 -2.484375 -1.96875q-0.765625 -1.265625 -0.765625 -2.765625q0 -2.5625 1.78125 -4.234375q1.796875 -1.671875 5.09375 -1.671875q3.265625 0 5.0625 1.671875q1.8125 1.671875 1.8125 4.234375q0 1.59375 -0.828125 2.84375q-0.828125 1.234375 -2.328125 1.890625q1.90625 0.765625 2.890625 2.234375q1.0 1.46875 1.0 3.390625q0 3.171875 -2.03125 5.15625q-2.015625 1.984375 -5.375 1.984375q-3.125 0 -5.203125 -1.640625q-2.453125 -1.9375 -2.453125 -5.3125q0 -1.859375 0.921875 -3.40625q0.921875 -1.5625 2.90625 -2.40625zm0.90625 -4.421875q0 1.3125 0.734375 2.046875q0.75 0.734375 1.984375 0.734375q1.25 0 2.0 -0.734375q0.75 -0.75 0.75 -2.0625q0 -1.234375 -0.75 -1.96875q-0.734375 -0.75 -1.953125 -0.75q-1.265625 0 -2.015625 0.75q-0.75 0.75 -0.75 1.984375zm-0.40625 9.8125q0 1.8125 0.921875 2.828125q0.9375 1.015625 2.328125 1.015625q1.359375 0 2.25 -0.96875q0.890625 -0.984375 0.890625 -2.828125q0 -1.609375 -0.90625 -2.578125q-0.90625 -0.984375 -2.296875 -0.984375q-1.609375 0 -2.40625 1.109375q-0.78125 1.109375 -0.78125 2.40625zm14.46875 6.96875l0 -4.390625l4.390625 0l0 4.390625l-4.390625 0zm7.953125 -18.515625l0 -4.078125l15.015625 0l0 3.1875q-1.859375 1.828125 -3.78125 5.25q-1.921875 3.421875 -2.9375 7.28125q-1.0 3.84375 -0.984375 6.875l-4.234375 0q0.109375 -4.75 1.953125 -9.6875q1.859375 -4.9375 4.953125 -8.828125l-9.984375 0zm18.78125 -4.390625l9.15625 0q2.71875 0 4.046875 0.234375q1.34375 0.21875 2.390625 0.9375q1.0625 0.71875 1.765625 1.921875q0.703125 1.1875 0.703125 2.671875q0 1.609375 -0.875 2.953125q-0.859375 1.34375 -2.34375 2.015625q2.09375 0.609375 3.21875 2.078125q1.125 1.46875 1.125 3.453125q0 1.5625 -0.734375 3.046875q-0.71875 1.46875 -1.984375 2.359375q-1.25 0.875 -3.09375 1.078125q-1.15625 0.125 -5.578125 0.15625l-7.796875 0l0 -22.90625zm4.625 3.8125l0 5.296875l3.03125 0q2.703125 0 3.359375 -0.078125q1.1875 -0.140625 1.859375 -0.8125q0.6875 -0.6875 0.6875 -1.796875q0 -1.0625 -0.59375 -1.71875q-0.578125 -0.671875 -1.734375 -0.8125q-0.6875 -0.078125 -3.953125 -0.078125l-2.65625 0zm0 9.109375l0 6.125l4.28125 0q2.5 0 3.171875 -0.140625q1.03125 -0.1875 1.671875 -0.90625q0.65625 -0.734375 0.65625 -1.953125q0 -1.03125 -0.5 -1.75q-0.5 -0.71875 -1.453125 -1.046875q-0.9375 -0.328125 -4.09375 -0.328125l-3.734375 0z" fill-rule="nonzero"></path><path fill="#000000" fill-opacity="0.0" d="m630.2493 459.0958l141.7323 0l0 37.95276l-141.7323 0z" fill-rule="nonzero"></path><path fill="#f3f3f3" d="m649.6379 486.40155l0 -6.546875q-3.0625 -0.875 -4.5 -2.640625q-1.421875 -1.78125 -1.421875 -4.3125q0 -2.5625 1.609375 -4.296875q1.625 -1.75 4.3125 -2.015625l0 -1.546875l2.265625 0l0 1.546875q2.484375 0.296875 3.953125 1.703125q1.46875 1.390625 1.875 3.734375l-3.953125 0.515625q-0.359375 -1.84375 -1.875 -2.5l0 6.109375q3.75 1.015625 5.109375 2.640625q1.359375 1.609375 1.359375 4.140625q0 2.828125 -1.71875 4.765625q-1.703125 1.9375 -4.75 2.375l0 2.921875l-2.265625 0l0 -2.84375q-2.703125 -0.328125 -4.390625 -2.015625q-1.6875 -1.6875 -2.15625 -4.765625l4.078125 -0.4375q0.25 1.25 0.9375 2.15625q0.6875 0.90625 1.53125 1.3125zm0 -16.40625q-0.921875 0.3125 -1.46875 1.0625q-0.546875 0.75 -0.546875 1.65625q0 0.828125 0.5 1.546875q0.5 0.703125 1.515625 1.140625l0 -5.40625zm2.265625 16.625q1.171875 -0.21875 1.90625 -1.078125q0.734375 -0.875 0.734375 -2.046875q0 -1.046875 -0.625 -1.796875q-0.609375 -0.765625 -2.015625 -1.171875l0 6.09375zm24.078125 -0.90625l0 4.078125l-15.390625 0q0.25 -2.3125 1.5 -4.375q1.25 -2.078125 4.9375 -5.5q2.96875 -2.765625 3.640625 -3.75q0.90625 -1.359375 0.90625 -2.6875q0 -1.46875 -0.796875 -2.25q-0.78125 -0.796875 -2.171875 -0.796875q-1.375 0 -2.1875 0.828125q-0.8125 0.828125 -0.9375 2.75l-4.375 -0.4375q0.390625 -3.625 2.453125 -5.203125q2.0625 -1.578125 5.15625 -1.578125q3.390625 0 5.328125 1.828125q1.9375 1.828125 1.9375 4.546875q0 1.546875 -0.5625 2.953125q-0.546875 1.390625 -1.75 2.921875q-0.796875 1.015625 -2.875 2.921875q-2.078125 1.90625 -2.640625 2.53125q-0.546875 0.625 -0.890625 1.21875l8.71875 0zm14.203125 4.078125l-4.390625 0l0 -16.546875q-2.40625 2.25 -5.671875 3.328125l0 -3.984375q1.71875 -0.5625 3.734375 -2.125q2.015625 -1.578125 2.765625 -3.671875l3.5625 0l0 23.0zm13.984375 -23.0q3.328125 0 5.203125 2.375q2.234375 2.8125 2.234375 9.328125q0 6.5 -2.25 9.34375q-1.859375 2.34375 -5.1875 2.34375q-3.34375 0 -5.390625 -2.5625q-2.046875 -2.578125 -2.046875 -9.171875q0 -6.46875 2.25 -9.3125q1.859375 -2.34375 5.1875 -2.34375zm0 3.640625q-0.796875 0 -1.421875 0.515625q-0.625 0.5 -0.96875 1.8125q-0.453125 1.703125 -0.453125 5.734375q0 4.03125 0.40625 5.546875q0.40625 1.5 1.015625 2.0q0.625 0.5 1.421875 0.5q0.796875 0 1.421875 -0.5q0.625 -0.515625 0.96875 -1.828125q0.453125 -1.6875 0.453125 -5.71875q0 -4.03125 -0.40625 -5.53125q-0.40625 -1.515625 -1.03125 -2.015625q-0.609375 -0.515625 -1.40625 -0.515625zm11.3125 19.359375l0 -4.390625l4.390625 0l0 4.390625l-4.390625 0zm22.78125 -4.078125l0 4.078125l-15.390625 0q0.25 -2.3125 1.5 -4.375q1.25 -2.078125 4.9375 -5.5q2.96875 -2.765625 3.640625 -3.75q0.90625 -1.359375 0.90625 -2.6875q0 -1.46875 -0.796875 -2.25q-0.78125 -0.796875 -2.171875 -0.796875q-1.375 0 -2.1875 0.828125q-0.8125 0.828125 -0.9375 2.75l-4.375 -0.4375q0.390625 -3.625 2.453125 -5.203125q2.0625 -1.578125 5.15625 -1.578125q3.390625 0 5.328125 1.828125q1.9375 1.828125 1.9375 4.546875q0 1.546875 -0.5625 2.953125q-0.546875 1.390625 -1.75 2.921875q-0.796875 1.015625 -2.875 2.921875q-2.078125 1.90625 -2.640625 2.53125q-0.546875 0.625 -0.890625 1.21875l8.71875 0zm3.953125 -18.828125l9.15625 0q2.71875 0 4.046875 0.234375q1.34375 0.21875 2.390625 0.9375q1.0625 0.71875 1.765625 1.921875q0.703125 1.1875 0.703125 2.671875q0 1.609375 -0.875 2.953125q-0.859375 1.34375 -2.34375 2.015625q2.09375 0.609375 3.21875 2.078125q1.125 1.46875 1.125 3.453125q0 1.5625 -0.734375 3.046875q-0.71875 1.46875 -1.984375 2.359375q-1.25 0.875 -3.09375 1.078125q-1.15625 0.125 -5.578125 0.15625l-7.796875 0l0 -22.90625zm4.625 3.8125l0 5.296875l3.03125 0q2.703125 0 3.359375 -0.078125q1.1875 -0.140625 1.859375 -0.8125q0.6875 -0.6875 0.6875 -1.796875q0 -1.0625 -0.59375 -1.71875q-0.578125 -0.671875 -1.734375 -0.8125q-0.6875 -0.078125 -3.953125 -0.078125l-2.65625 0zm0 9.109375l0 6.125l4.28125 0q2.5 0 3.171875 -0.140625q1.03125 -0.1875 1.671875 -0.90625q0.65625 -0.734375 0.65625 -1.953125q0 -1.03125 -0.5 -1.75q-0.5 -0.71875 -1.453125 -1.046875q-0.9375 -0.328125 -4.09375 -0.328125l-3.734375 0z" fill-rule="nonzero"></path><path fill="#000000" fill-opacity="0.0" d="m630.2493 596.03674l141.7323 0l0 37.95276l-141.7323 0z" fill-rule="nonzero"></path><path fill="#f3f3f3" d="m649.6379 623.34247l0 -6.546875q-3.0625 -0.875 -4.5 -2.640625q-1.421875 -1.78125 -1.421875 -4.3125q0 -2.5625 1.609375 -4.296875q1.625 -1.75 4.3125 -2.015625l0 -1.546875l2.265625 0l0 1.546875q2.484375 0.296875 3.953125 1.703125q1.46875 1.390625 1.875 3.734375l-3.953125 0.515625q-0.359375 -1.84375 -1.875 -2.5l0 6.109375q3.75 1.015625 5.109375 2.640625q1.359375 1.609375 1.359375 4.140625q0 2.828125 -1.71875 4.765625q-1.703125 1.9375 -4.75 2.375l0 2.921875l-2.265625 0l0 -2.84375q-2.703125 -0.328125 -4.390625 -2.015625q-1.6875 -1.6875 -2.15625 -4.765625l4.078125 -0.4375q0.25 1.25 0.9375 2.15625q0.6875 0.90625 1.53125 1.3125zm0 -16.40625q-0.921875 0.3125 -1.46875 1.0625q-0.546875 0.75 -0.546875 1.65625q0 0.828125 0.5 1.546875q0.5 0.703125 1.515625 1.140625l0 -5.40625zm2.265625 16.625q1.171875 -0.21875 1.90625 -1.078125q0.734375 -0.875 0.734375 -2.046875q0 -1.046875 -0.625 -1.796875q-0.609375 -0.765625 -2.015625 -1.171875l0 6.09375zm24.078125 -0.90625l0 4.078125l-15.390625 0q0.25 -2.3125 1.5 -4.375q1.25 -2.078125 4.9375 -5.5q2.96875 -2.765625 3.640625 -3.75q0.90625 -1.359375 0.90625 -2.6875q0 -1.46875 -0.796875 -2.25q-0.78125 -0.796875 -2.171875 -0.796875q-1.375 0 -2.1875 0.828125q-0.8125 0.828125 -0.9375 2.75l-4.375 -0.4375q0.390625 -3.625 2.453125 -5.203125q2.0625 -1.578125 5.15625 -1.578125q3.390625 0 5.328125 1.828125q1.9375 1.828125 1.9375 4.546875q0 1.546875 -0.5625 2.953125q-0.546875 1.390625 -1.75 2.921875q-0.796875 1.015625 -2.875 2.921875q-2.078125 1.90625 -2.640625 2.53125q-0.546875 0.625 -0.890625 1.21875l8.71875 0zm2.96875 -14.4375l0 -4.078125l15.015625 0l0 3.1875q-1.859375 1.828125 -3.78125 5.25q-1.921875 3.421875 -2.9375 7.28125q-1.0 3.84375 -0.984375 6.875l-4.234375 0q0.109375 -4.75 1.953125 -9.6875q1.859375 -4.9375 4.953125 -8.828125l-9.984375 0zm25.21875 -4.484375q3.328125 0 5.203125 2.375q2.234375 2.8125 2.234375 9.328125q0 6.5 -2.25 9.34375q-1.859375 2.34375 -5.1875 2.34375q-3.34375 0 -5.390625 -2.5625q-2.046875 -2.578125 -2.046875 -9.171875q0 -6.46875 2.25 -9.3125q1.859375 -2.34375 5.1875 -2.34375zm0 3.640625q-0.796875 0 -1.421875 0.515625q-0.625 0.5 -0.96875 1.8125q-0.453125 1.703125 -0.453125 5.734375q0 4.03125 0.40625 5.546875q0.40625 1.5 1.015625 2.0q0.625 0.5 1.421875 0.5q0.796875 0 1.421875 -0.5q0.625 -0.515625 0.96875 -1.828125q0.453125 -1.6875 0.453125 -5.71875q0 -4.03125 -0.40625 -5.53125q-0.40625 -1.515625 -1.03125 -2.015625q-0.609375 -0.515625 -1.40625 -0.515625zm11.3125 19.359375l0 -4.390625l4.390625 0l0 4.390625l-4.390625 0zm15.375 -23.0q3.328125 0 5.203125 2.375q2.234375 2.8125 2.234375 9.328125q0 6.5 -2.25 9.34375q-1.859375 2.34375 -5.1875 2.34375q-3.34375 0 -5.390625 -2.5625q-2.046875 -2.578125 -2.046875 -9.171875q0 -6.46875 2.25 -9.3125q1.859375 -2.34375 5.1875 -2.34375zm0 3.640625q-0.796875 0 -1.421875 0.515625q-0.625 0.5 -0.96875 1.8125q-0.453125 1.703125 -0.453125 5.734375q0 4.03125 0.40625 5.546875q0.40625 1.5 1.015625 2.0q0.625 0.5 1.421875 0.5q0.796875 0 1.421875 -0.5q0.625 -0.515625 0.96875 -1.828125q0.453125 -1.6875 0.453125 -5.71875q0 -4.03125 -0.40625 -5.53125q-0.40625 -1.515625 -1.03125 -2.015625q-0.609375 -0.515625 -1.40625 -0.515625zm11.359375 -3.546875l9.15625 0q2.71875 0 4.046875 0.234375q1.34375 0.21875 2.390625 0.9375q1.0625 0.71875 1.765625 1.921875q0.703125 1.1875 0.703125 2.671875q0 1.609375 -0.875 2.953125q-0.859375 1.34375 -2.34375 2.015625q2.09375 0.609375 3.21875 2.078125q1.125 1.46875 1.125 3.453125q0 1.5625 -0.734375 3.046875q-0.71875 1.46875 -1.984375 2.359375q-1.25 0.875 -3.09375 1.078125q-1.15625 0.125 -5.578125 0.15625l-7.796875 0l0 -22.90625zm4.625 3.8125l0 5.296875l3.03125 0q2.703125 0 3.359375 -0.078125q1.1875 -0.140625 1.859375 -0.8125q0.6875 -0.6875 0.6875 -1.796875q0 -1.0625 -0.59375 -1.71875q-0.578125 -0.671875 -1.734375 -0.8125q-0.6875 -0.078125 -3.953125 -0.078125l-2.65625 0zm0 9.109375l0 6.125l4.28125 0q2.5 0 3.171875 -0.140625q1.03125 -0.1875 1.671875 -0.90625q0.65625 -0.734375 0.65625 -1.953125q0 -1.03125 -0.5 -1.75q-0.5 -0.71875 -1.453125 -1.046875q-0.9375 -0.328125 -4.09375 -0.328125l-3.734375 0z" fill-rule="nonzero"></path><path fill="#000000" fill-opacity="0.0" d="m219.77492 389.48297l71.779526 0l0 28.37796l-71.779526 0z" fill-rule="nonzero"></path><path fill="#f3f3f3" d="m235.82788 411.1882l0 -1.40625q-1.046875 -0.140625 -1.71875 -0.484375q-0.65625 -0.34375 -1.140625 -1.09375q-0.46875 -0.765625 -0.546875 -1.859375l1.40625 -0.265625q0.171875 1.140625 0.578125 1.671875q0.59375 0.75 1.421875 0.828125l0 -4.46875q-0.859375 -0.171875 -1.765625 -0.671875q-0.671875 -0.375 -1.046875 -1.03125q-0.359375 -0.671875 -0.359375 -1.515625q0 -1.5 1.0625 -2.4375q0.71875 -0.625 2.109375 -0.765625l0 -0.671875l0.828125 0l0 0.671875q1.234375 0.125 1.953125 0.71875q0.921875 0.765625 1.109375 2.109375l-1.453125 0.21875q-0.125 -0.828125 -0.53125 -1.265625q-0.390625 -0.453125 -1.078125 -0.59375l0 4.0625q1.0625 0.265625 1.40625 0.40625q0.65625 0.296875 1.0625 0.71875q0.421875 0.40625 0.640625 0.984375q0.234375 0.5625 0.234375 1.21875q0 1.46875 -0.9375 2.453125q-0.921875 0.96875 -2.40625 1.046875l0 1.421875l-0.828125 0zm0 -12.328125q-0.8125 0.125 -1.296875 0.65625q-0.46875 0.53125 -0.46875 1.265625q0 0.71875 0.40625 1.203125q0.40625 0.484375 1.359375 0.765625l0 -3.890625zm0.828125 9.71875q0.828125 -0.09375 1.359375 -0.703125q0.53125 -0.609375 0.53125 -1.515625q0 -0.765625 -0.375 -1.21875q-0.375 -0.46875 -1.515625 -0.84375l0 4.28125zm4.7578125 -2.046875l1.46875 -0.125q0.171875 1.078125 0.765625 1.625q0.59375 0.53125 1.4375 0.53125q1.015625 0 1.71875 -0.765625q0.703125 -0.765625 0.703125 -2.03125q0 -1.203125 -0.671875 -1.890625q-0.671875 -0.703125 -1.765625 -0.703125q-0.6875 0 -1.234375 0.3125q-0.546875 0.3125 -0.859375 0.796875l-1.3125 -0.171875l1.109375 -5.875l5.6875 0l0 1.34375l-4.5625 0l-0.625 3.078125q1.03125 -0.71875 2.171875 -0.71875q1.5 0 2.53125 1.046875q1.03125 1.03125 1.03125 2.65625q0 1.5625 -0.90625 2.6875q-1.109375 1.40625 -3.015625 1.40625q-1.5625 0 -2.546875 -0.875q-0.984375 -0.890625 -1.125 -2.328125zm9.1015625 0.34375l1.359375 -0.125q0.171875 0.953125 0.65625 1.390625q0.484375 0.421875 1.234375 0.421875q0.65625 0 1.140625 -0.296875q0.484375 -0.296875 0.796875 -0.78125q0.3125 -0.5 0.515625 -1.34375q0.21875 -0.84375 0.21875 -1.71875q0 -0.09375 0 -0.28125q-0.421875 0.671875 -1.15625 1.09375q-0.734375 0.40625 -1.578125 0.40625q-1.421875 0 -2.40625 -1.03125q-0.984375 -1.03125 -0.984375 -2.71875q0 -1.734375 1.015625 -2.796875q1.03125 -1.0625 2.578125 -1.0625q1.125 0 2.046875 0.609375q0.921875 0.59375 1.40625 1.703125q0.484375 1.109375 0.484375 3.21875q0 2.203125 -0.484375 3.5q-0.46875 1.296875 -1.421875 1.984375q-0.9375 0.6875 -2.203125 0.6875q-1.34375 0 -2.203125 -0.75q-0.84375 -0.75 -1.015625 -2.109375zm5.765625 -5.046875q0 -1.21875 -0.65625 -1.921875q-0.640625 -0.71875 -1.546875 -0.71875q-0.9375 0 -1.640625 0.765625q-0.6875 0.765625 -0.6875 1.984375q0 1.09375 0.65625 1.78125q0.671875 0.6875 1.640625 0.6875q0.96875 0 1.59375 -0.6875q0.640625 -0.6875 0.640625 -1.890625zm3.7109375 7.703125l0 -1.609375l1.609375 0l0 1.609375l-1.609375 0zm11.0546875 -1.359375l0 1.359375l-7.578125 0q-0.015625 -0.515625 0.171875 -0.984375q0.28125 -0.765625 0.921875 -1.515625q0.640625 -0.75 1.84375 -1.734375q1.859375 -1.53125 2.515625 -2.421875q0.65625 -0.90625 0.65625 -1.703125q0 -0.828125 -0.59375 -1.40625q-0.59375 -0.578125 -1.5625 -0.578125q-1.015625 0 -1.625 0.609375q-0.609375 0.609375 -0.609375 1.6875l-1.453125 -0.140625q0.15625 -1.625 1.125 -2.46875q0.96875 -0.84375 2.59375 -0.84375q1.65625 0 2.609375 0.921875q0.96875 0.90625 0.96875 2.25q0 0.6875 -0.28125 1.359375q-0.28125 0.65625 -0.9375 1.390625q-0.65625 0.734375 -2.171875 2.015625q-1.265625 1.0625 -1.625 1.453125q-0.359375 0.375 -0.59375 0.75l5.625 0zm2.0078125 1.359375l0 -11.453125l4.296875 0q1.3125 0 2.109375 0.34375q0.796875 0.34375 1.234375 1.078125q0.453125 0.71875 0.453125 1.5q0 0.734375 -0.40625 1.390625q-0.390625 0.640625 -1.1875 1.046875q1.03125 0.296875 1.59375 1.03125q0.5625 0.734375 0.5625 1.734375q0 0.8125 -0.34375 1.5q-0.34375 0.6875 -0.84375 1.0625q-0.5 0.375 -1.25 0.578125q-0.75 0.1875 -1.84375 0.1875l-4.375 0zm1.515625 -6.640625l2.484375 0q1.0 0 1.4375 -0.140625q0.578125 -0.171875 0.875 -0.5625q0.296875 -0.40625 0.296875 -1.0q0 -0.578125 -0.28125 -1.0q-0.265625 -0.4375 -0.78125 -0.59375q-0.5 -0.171875 -1.734375 -0.171875l-2.296875 0l0 3.46875zm0 5.28125l2.859375 0q0.734375 0 1.03125 -0.046875q0.515625 -0.09375 0.859375 -0.3125q0.359375 -0.21875 0.578125 -0.640625q0.234375 -0.421875 0.234375 -0.96875q0 -0.640625 -0.328125 -1.109375q-0.328125 -0.46875 -0.90625 -0.65625q-0.578125 -0.203125 -1.671875 -0.203125l-2.65625 0l0 3.9375z" fill-rule="nonzero"></path><path fill="#000000" fill-opacity="0.0" d="m219.77492 334.95972l71.779526 0l0 28.37796l-71.779526 0z" fill-rule="nonzero"></path><path fill="#f3f3f3" d="m239.8368 355.77557l0 -1.3125q-0.984375 -0.125 -1.609375 -0.4375q-0.609375 -0.328125 -1.0625 -1.03125q-0.453125 -0.71875 -0.53125 -1.75l1.328125 -0.25q0.15625 1.0625 0.546875 1.5625q0.546875 0.703125 1.328125 0.78125l0 -4.1875q-0.8125 -0.15625 -1.65625 -0.640625q-0.640625 -0.34375 -0.984375 -0.96875q-0.328125 -0.625 -0.328125 -1.40625q0 -1.40625 1.0 -2.28125q0.65625 -0.59375 1.96875 -0.71875l0 -0.625l0.78125 0l0 0.625q1.140625 0.109375 1.8125 0.671875q0.875 0.71875 1.046875 1.96875l-1.359375 0.203125q-0.125 -0.78125 -0.5 -1.1875q-0.359375 -0.40625 -1.0 -0.546875l0 3.796875q1.0 0.25 1.3125 0.390625q0.625 0.28125 1.0 0.671875q0.390625 0.375 0.59375 0.921875q0.21875 0.53125 0.21875 1.15625q0 1.359375 -0.875 2.28125q-0.875 0.90625 -2.25 0.984375l0 1.328125l-0.78125 0zm0 -11.546875q-0.765625 0.125 -1.21875 0.625q-0.4375 0.484375 -0.4375 1.171875q0 0.671875 0.375 1.125q0.375 0.453125 1.28125 0.734375l0 -3.65625zm0.78125 9.109375q0.765625 -0.09375 1.265625 -0.65625q0.5 -0.578125 0.5 -1.421875q0 -0.71875 -0.359375 -1.15625q-0.34375 -0.4375 -1.40625 -0.78125l0 4.015625zm11.182358 -0.375l0 1.265625l-7.09375 0q-0.015625 -0.46875 0.15625 -0.921875q0.265625 -0.71875 0.859375 -1.421875q0.609375 -0.703125 1.734375 -1.625q1.75 -1.4375 2.359375 -2.265625q0.625 -0.84375 0.625 -1.59375q0 -0.78125 -0.5625 -1.3125q-0.5625 -0.546875 -1.46875 -0.546875q-0.953125 0 -1.53125 0.578125q-0.5625 0.5625 -0.5625 1.578125l-1.359375 -0.140625q0.140625 -1.515625 1.046875 -2.3125q0.90625 -0.796875 2.4375 -0.796875q1.546875 0 2.4375 0.859375q0.90625 0.859375 0.90625 2.125q0 0.640625 -0.265625 1.265625q-0.25 0.625 -0.875 1.3125q-0.609375 0.6875 -2.03125 1.890625q-1.1875 0.984375 -1.53125 1.34375q-0.328125 0.359375 -0.546875 0.71875l5.265625 0zm1.2292328 -1.546875l1.375 -0.125q0.15625 1.015625 0.71875 1.53125q0.5625 0.5 1.3593597 0.5q0.953125 0 1.609375 -0.71875q0.65625 -0.71875 0.65625 -1.890625q0 -1.140625 -0.640625 -1.78125q-0.625 -0.65625 -1.65625 -0.65625q-0.64060974 0 -1.1562347 0.296875q-0.5 0.28125 -0.796875 0.734375l-1.234375 -0.15625l1.03125 -5.515625l5.3437347 0l0 1.265625l-4.2812347 0l-0.578125 2.875q0.96875 -0.671875 2.0312347 -0.671875q1.40625 0 2.359375 0.984375q0.96875 0.96875 0.96875 2.5q0 1.453125 -0.84375 2.515625q-1.03125 1.3125 -2.8125 1.3125q-1.4687347 0 -2.4062347 -0.8125q-0.921875 -0.828125 -1.046875 -2.1875zm8.885483 2.8125l0 -1.5l1.5 0l0 1.5l-1.5 0zm3.3375854 -5.296875q0 -1.90625 0.390625 -3.0625q0.390625 -1.15625 1.15625 -1.78125q0.78125 -0.640625 1.953125 -0.640625q0.859375 0 1.515625 0.359375q0.65625 0.34375 1.078125 1.0q0.421875 0.640625 0.65625 1.59375q0.25 0.9375 0.25 2.53125q0 1.890625 -0.390625 3.0625q-0.390625 1.15625 -1.171875 1.796875q-0.765625 0.625 -1.9375 0.625q-1.546875 0 -2.4375 -1.125q-1.0625 -1.328125 -1.0625 -4.359375zm1.359375 0q0 2.640625 0.609375 3.515625q0.625 0.875 1.53125 0.875q0.90625 0 1.515625 -0.875q0.625 -0.875 0.625 -3.515625q0 -2.65625 -0.625 -3.515625q-0.609375 -0.875 -1.53125 -0.875q-0.90625 0 -1.453125 0.765625q-0.671875 0.984375 -0.671875 3.625zm7.260498 5.296875l0 -10.734375l4.03125 0q1.234375 0 1.96875 0.328125q0.75 0.328125 1.171875 1.0q0.421875 0.671875 0.421875 1.421875q0 0.6875 -0.375 1.296875q-0.375 0.59375 -1.125 0.96875q0.96875 0.296875 1.484375 0.984375q0.53125 0.6875 0.53125 1.625q0 0.75 -0.328125 1.40625q-0.3125 0.640625 -0.78125 1.0q-0.46875 0.34375 -1.171875 0.53125q-0.703125 0.171875 -1.734375 0.171875l-4.09375 0zm1.421875 -6.21875l2.328125 0q0.9375 0 1.359375 -0.125q0.53125 -0.171875 0.796875 -0.546875q0.28125 -0.375 0.28125 -0.9375q0 -0.53125 -0.25 -0.9375q-0.25 -0.40625 -0.734375 -0.546875q-0.46875 -0.15625 -1.625 -0.15625l-2.15625 0l0 3.25zm0 4.953125l2.671875 0q0.6875 0 0.96875 -0.046875q0.5 -0.09375 0.828125 -0.296875q0.328125 -0.203125 0.53125 -0.59375q0.21875 -0.390625 0.21875 -0.90625q0 -0.609375 -0.3125 -1.046875q-0.296875 -0.4375 -0.84375 -0.609375q-0.546875 -0.1875 -1.578125 -0.1875l-2.484375 0l0 3.6875z" fill-rule="nonzero"></path><path fill="#000000" fill-opacity="0.0" d="m219.77385 311.63052l71.779526 0l0 28.37796l-71.779526 0z" fill-rule="nonzero"></path><path fill="#f3f3f3" d="m247.98685 332.44638l0 -1.3125q-0.984375 -0.125 -1.609375 -0.4375q-0.609375 -0.328125 -1.0625 -1.03125q-0.453125 -0.71875 -0.53125 -1.75l1.328125 -0.25q0.15625 1.0625 0.546875 1.5625q0.546875 0.703125 1.328125 0.78125l0 -4.1875q-0.8125 -0.15625 -1.65625 -0.640625q-0.640625 -0.34375 -0.984375 -0.96875q-0.328125 -0.625 -0.328125 -1.40625q0 -1.40625 1.0 -2.28125q0.65625 -0.59375 1.96875 -0.71875l0 -0.625l0.78125 0l0 0.625q1.140625 0.109375 1.8125 0.671875q0.875 0.71875 1.046875 1.96875l-1.359375 0.203125q-0.125 -0.78125 -0.5 -1.1875q-0.359375 -0.40625 -1.0 -0.546875l0 3.796875q1.0 0.25 1.3125 0.390625q0.625 0.28125 1.0 0.671875q0.390625 0.375 0.59375 0.921875q0.21875 0.53125 0.21875 1.15625q0 1.359375 -0.875 2.28125q-0.875 0.90625 -2.25 0.984375l0 1.328125l-0.78125 0zm0 -11.546875q-0.765625 0.125 -1.21875 0.625q-0.4375 0.484375 -0.4375 1.171875q0 0.671875 0.375 1.125q0.375 0.453125 1.28125 0.734375l0 -3.65625zm0.78125 9.109375q0.765625 -0.09375 1.265625 -0.65625q0.5 -0.578125 0.5 -1.421875q0 -0.71875 -0.359375 -1.15625q-0.34375 -0.4375 -1.40625 -0.78125l0 4.015625zm11.104218 -7.21875l-1.3125 0.109375q-0.171875 -0.78125 -0.5 -1.140625q-0.53125 -0.5625 -1.3125 -0.5625q-0.640625 0 -1.1093597 0.359375q-0.625 0.453125 -0.984375 1.328125q-0.359375 0.859375 -0.375 2.484375q0.46875 -0.734375 1.15625 -1.078125q0.70310974 -0.359375 1.4531097 -0.359375q1.3125 0 2.234375 0.96875q0.9375 0.96875 0.9375 2.515625q0 1.015625 -0.4375 1.890625q-0.4375 0.859375 -1.203125 1.328125q-0.75 0.453125 -1.71875 0.453125q-1.6562347 0 -2.7031097 -1.203125q-1.03125 -1.21875 -1.03125 -4.015625q0 -3.109375 1.15625 -4.515625q1.0 -1.234375 2.7031097 -1.234375q1.265625 0 2.0625 0.71875q0.8125 0.703125 0.984375 1.953125zm-5.3906097 4.625q0 0.6875 0.28125 1.3125q0.296875 0.625 0.8125 0.953125q0.53123474 0.3125 1.0937347 0.3125q0.84375 0 1.4375 -0.671875q0.609375 -0.671875 0.609375 -1.828125q0 -1.109375 -0.59375 -1.75q-0.59375 -0.640625 -1.5 -0.640625q-0.89060974 0 -1.5156097 0.640625q-0.625 0.640625 -0.625 1.671875zm7.432358 3.484375l0 -1.5l1.5 0l0 1.5l-1.5 0zm10.25946 -1.265625l0 1.265625l-7.09375 0q-0.015625 -0.46875 0.15625 -0.921875q0.265625 -0.71875 0.859375 -1.421875q0.609375 -0.703125 1.734375 -1.625q1.75 -1.4375 2.359375 -2.265625q0.625 -0.84375 0.625 -1.59375q0 -0.78125 -0.5625 -1.3125q-0.5625 -0.546875 -1.46875 -0.546875q-0.953125 0 -1.53125 0.578125q-0.5625 0.5625 -0.5625 1.578125l-1.359375 -0.140625q0.140625 -1.515625 1.046875 -2.3125q0.90625 -0.796875 2.4375 -0.796875q1.546875 0 2.4375 0.859375q0.90625 0.859375 0.90625 2.125q0 0.640625 -0.265625 1.265625q-0.25 0.625 -0.875 1.3125q-0.609375 0.6875 -2.03125 1.890625q-1.1875 0.984375 -1.53125 1.34375q-0.328125 0.359375 -0.546875 0.71875l5.265625 0zm1.697998 1.265625l0 -10.734375l4.03125 0q1.234375 0 1.96875 0.328125q0.75 0.328125 1.171875 1.0q0.421875 0.671875 0.421875 1.421875q0 0.6875 -0.375 1.296875q-0.375 0.59375 -1.125 0.96875q0.96875 0.296875 1.484375 0.984375q0.53125 0.6875 0.53125 1.625q0 0.75 -0.328125 1.40625q-0.3125 0.640625 -0.78125 1.0q-0.46875 0.34375 -1.171875 0.53125q-0.703125 0.171875 -1.734375 0.171875l-4.09375 0zm1.421875 -6.21875l2.328125 0q0.9375 0 1.359375 -0.125q0.53125 -0.171875 0.796875 -0.546875q0.28125 -0.375 0.28125 -0.9375q0 -0.53125 -0.25 -0.9375q-0.25 -0.40625 -0.734375 -0.546875q-0.46875 -0.15625 -1.625 -0.15625l-2.15625 0l0 3.25zm0 4.953125l2.671875 0q0.6875 0 0.96875 -0.046875q0.5 -0.09375 0.828125 -0.296875q0.328125 -0.203125 0.53125 -0.59375q0.21875 -0.390625 0.21875 -0.90625q0 -0.609375 -0.3125 -1.046875q-0.296875 -0.4375 -0.84375 -0.609375q-0.546875 -0.1875 -1.578125 -0.1875l-2.484375 0l0 3.6875z" fill-rule="nonzero"></path><path fill="#000000" fill-opacity="0.0" d="m219.77385 294.82755l71.779526 0l0 28.37793l-71.779526 0z" fill-rule="nonzero"></path><path fill="#f3f3f3" d="m239.83574 315.64337l0 -1.3125q-0.984375 -0.125 -1.609375 -0.4375q-0.609375 -0.328125 -1.0625 -1.03125q-0.453125 -0.71875 -0.53125 -1.75l1.328125 -0.25q0.15625 1.0625 0.546875 1.5625q0.546875 0.703125 1.328125 0.78125l0 -4.1875q-0.8125 -0.15625 -1.65625 -0.640625q-0.640625 -0.34375 -0.984375 -0.96875q-0.328125 -0.625 -0.328125 -1.40625q0 -1.40625 1.0 -2.28125q0.65625 -0.59375 1.96875 -0.71875l0 -0.625l0.78125 0l0 0.625q1.140625 0.109375 1.8125 0.671875q0.875 0.71875 1.046875 1.96875l-1.359375 0.203125q-0.125 -0.78125 -0.5 -1.1875q-0.359375 -0.40625 -1.0 -0.546875l0 3.796875q1.0 0.25 1.3125 0.390625q0.625 0.28125 1.0 0.671875q0.390625 0.375 0.59375 0.921875q0.21875 0.53125 0.21875 1.15625q0 1.359375 -0.875 2.28125q-0.875 0.90625 -2.25 0.984375l0 1.328125l-0.78125 0zm0 -11.546875q-0.765625 0.125 -1.21875 0.625q-0.4375 0.484375 -0.4375 1.171875q0 0.671875 0.375 1.125q0.375 0.453125 1.28125 0.734375l0 -3.65625zm0.78125 9.109375q0.765625 -0.09375 1.265625 -0.65625q0.5 -0.578125 0.5 -1.421875q0 -0.71875 -0.359375 -1.15625q-0.34375 -0.4375 -1.40625 -0.78125l0 4.015625zm9.229233 0.890625l-1.328125 0l0 -8.40625q-0.46875 0.453125 -1.25 0.921875q-0.765625 0.453125 -1.375 0.671875l0 -1.28125q1.09375 -0.515625 1.921875 -1.25q0.828125 -0.734375 1.171875 -1.4375l0.859375 0l0 10.78125zm3.1823578 -5.296875q0 -1.90625 0.390625 -3.0625q0.390625 -1.15625 1.15625 -1.78125q0.78125 -0.640625 1.9531097 -0.640625q0.859375 0 1.515625 0.359375q0.65625 0.34375 1.078125 1.0q0.421875 0.640625 0.65625 1.59375q0.25 0.9375 0.25 2.53125q0 1.890625 -0.390625 3.0625q-0.390625 1.15625 -1.171875 1.796875q-0.765625 0.625 -1.9375 0.625q-1.5468597 0 -2.4374847 -1.125q-1.0625 -1.328125 -1.0625 -4.359375zm1.359375 0q0 2.640625 0.609375 3.515625q0.625 0.875 1.5312347 0.875q0.90625 0 1.515625 -0.875q0.625 -0.875 0.625 -3.515625q0 -2.65625 -0.625 -3.515625q-0.609375 -0.875 -1.53125 -0.875q-0.90623474 0 -1.4531097 0.765625q-0.671875 0.984375 -0.671875 3.625zm7.526108 5.296875l0 -1.5l1.5 0l0 1.5l-1.5 0zm7.5563354 0l0 -2.578125l-4.65625 0l0 -1.203125l4.90625 -6.953125l1.078125 0l0 6.953125l1.453125 0l0 1.203125l-1.453125 0l0 2.578125l-1.328125 0zm0 -3.78125l0 -4.84375l-3.359375 4.84375l3.359375 0zm4.401123 3.78125l0 -10.734375l4.03125 0q1.234375 0 1.96875 0.328125q0.75 0.328125 1.171875 1.0q0.421875 0.671875 0.421875 1.421875q0 0.6875 -0.375 1.296875q-0.375 0.59375 -1.125 0.96875q0.96875 0.296875 1.484375 0.984375q0.53125 0.6875 0.53125 1.625q0 0.75 -0.328125 1.40625q-0.3125 0.640625 -0.78125 1.0q-0.46875 0.34375 -1.171875 0.53125q-0.703125 0.171875 -1.734375 0.171875l-4.09375 0zm1.421875 -6.21875l2.328125 0q0.9375 0 1.359375 -0.125q0.53125 -0.171875 0.796875 -0.546875q0.28125 -0.375 0.28125 -0.9375q0 -0.53125 -0.25 -0.9375q-0.25 -0.40625 -0.734375 -0.546875q-0.46875 -0.15625 -1.625 -0.15625l-2.15625 0l0 3.25zm0 4.953125l2.671875 0q0.6875 0 0.96875 -0.046875q0.5 -0.09375 0.828125 -0.296875q0.328125 -0.203125 0.53125 -0.59375q0.21875 -0.390625 0.21875 -0.90625q0 -0.609375 -0.3125 -1.046875q-0.296875 -0.4375 -0.84375 -0.609375q-0.546875 -0.1875 -1.578125 -0.1875l-2.484375 0l0 3.6875z" fill-rule="nonzero"></path><path fill="#000000" fill-opacity="0.0" d="m218.81894 244.14174l71.77954 0l0 28.377945l-71.77954 0z" fill-rule="nonzero"></path><path fill="#f3f3f3" d="m234.8719 265.84695l0 -1.40625q-1.046875 -0.140625 -1.71875 -0.484375q-0.65625 -0.34375 -1.140625 -1.09375q-0.46875 -0.765625 -0.546875 -1.859375l1.40625 -0.265625q0.171875 1.140625 0.578125 1.671875q0.59375 0.75 1.421875 0.828125l0 -4.46875q-0.859375 -0.171875 -1.765625 -0.671875q-0.671875 -0.375 -1.046875 -1.03125q-0.359375 -0.671875 -0.359375 -1.515625q0 -1.5 1.0625 -2.4375q0.71875 -0.625 2.109375 -0.765625l0 -0.671875l0.828125 0l0 0.671875q1.234375 0.125 1.953125 0.71875q0.921875 0.765625 1.109375 2.109375l-1.453125 0.21875q-0.125 -0.828125 -0.53125 -1.265625q-0.390625 -0.453125 -1.078125 -0.59375l0 4.0625q1.0625 0.265625 1.40625 0.40625q0.65625 0.296875 1.0625 0.71875q0.421875 0.40625 0.640625 0.984375q0.234375 0.5625 0.234375 1.21875q0 1.46875 -0.9375 2.453125q-0.921875 0.96875 -2.40625 1.046875l0 1.421875l-0.828125 0zm0 -12.328125q-0.8125 0.125 -1.296875 0.65625q-0.46875 0.53125 -0.46875 1.265625q0 0.71875 0.40625 1.203125q0.40625 0.484375 1.359375 0.765625l0 -3.890625zm0.828125 9.71875q0.828125 -0.09375 1.359375 -0.703125q0.53125 -0.609375 0.53125 -1.515625q0 -0.765625 -0.375 -1.21875q-0.375 -0.46875 -1.515625 -0.84375l0 4.28125zm4.8515625 -9.0l0 -1.359375l7.40625 0l0 1.09375q-1.09375 1.171875 -2.171875 3.109375q-1.0625 1.921875 -1.65625 3.953125q-0.421875 1.4375 -0.53125 3.15625l-1.453125 0q0.03125 -1.359375 0.53125 -3.265625q0.515625 -1.921875 1.453125 -3.6875q0.953125 -1.78125 2.03125 -3.0l-5.609375 0zm9.0078125 7.296875l1.359375 -0.125q0.171875 0.953125 0.65625 1.390625q0.484375 0.421875 1.234375 0.421875q0.65625 0 1.140625 -0.296875q0.484375 -0.296875 0.796875 -0.78125q0.3125 -0.5 0.515625 -1.34375q0.21875 -0.84375 0.21875 -1.71875q0 -0.09375 0 -0.28125q-0.421875 0.671875 -1.15625 1.09375q-0.734375 0.40625 -1.578125 0.40625q-1.421875 0 -2.40625 -1.03125q-0.984375 -1.03125 -0.984375 -2.71875q0 -1.734375 1.015625 -2.796875q1.03125 -1.0625 2.578125 -1.0625q1.125 0 2.046875 0.609375q0.921875 0.59375 1.4062347 1.703125q0.484375 1.109375 0.484375 3.21875q0 2.203125 -0.484375 3.5q-0.46873474 1.296875 -1.4218597 1.984375q-0.9375 0.6875 -2.203125 0.6875q-1.34375 0 -2.203125 -0.75q-0.84375 -0.75 -1.015625 -2.109375zm5.765625 -5.046875q0 -1.21875 -0.65625 -1.921875q-0.640625 -0.71875 -1.546875 -0.71875q-0.9375 0 -1.640625 0.765625q-0.6875 0.765625 -0.6875 1.984375q0 1.09375 0.65625 1.78125q0.671875 0.6875 1.640625 0.6875q0.96875 0 1.59375 -0.6875q0.640625 -0.6875 0.640625 -1.890625zm3.7109222 7.703125l0 -1.609375l1.609375 0l0 1.609375l-1.609375 0zm8.1640625 0l0 -2.75l-4.96875 0l0 -1.28125l5.234375 -7.421875l1.140625 0l0 7.421875l1.546875 0l0 1.28125l-1.546875 0l0 2.75l-1.40625 0zm0 -4.03125l0 -5.171875l-3.578125 5.171875l3.578125 0zm4.8984375 4.03125l0 -11.453125l4.296875 0q1.3125 0 2.109375 0.34375q0.796875 0.34375 1.234375 1.078125q0.453125 0.71875 0.453125 1.5q0 0.734375 -0.40625 1.390625q-0.390625 0.640625 -1.1875 1.046875q1.03125 0.296875 1.59375 1.03125q0.5625 0.734375 0.5625 1.734375q0 0.8125 -0.34375 1.5q-0.34375 0.6875 -0.84375 1.0625q-0.5 0.375 -1.25 0.578125q-0.75 0.1875 -1.84375 0.1875l-4.375 0zm1.515625 -6.640625l2.484375 0q1.0 0 1.4375 -0.140625q0.578125 -0.171875 0.875 -0.5625q0.296875 -0.40625 0.296875 -1.0q0 -0.578125 -0.28125 -1.0q-0.265625 -0.4375 -0.78125 -0.59375q-0.5 -0.171875 -1.734375 -0.171875l-2.296875 0l0 3.46875zm0 5.28125l2.859375 0q0.734375 0 1.03125 -0.046875q0.515625 -0.09375 0.859375 -0.3125q0.359375 -0.21875 0.578125 -0.640625q0.234375 -0.421875 0.234375 -0.96875q0 -0.640625 -0.328125 -1.109375q-0.328125 -0.46875 -0.90625 -0.65625q-0.578125 -0.203125 -1.671875 -0.203125l-2.65625 0l0 3.9375z" fill-rule="nonzero"></path><path fill="#000000" fill-opacity="0.0" d="m13.944881 91.13648l324.78738 0l0 40.566933l-324.78738 0z" fill-rule="nonzero"></path><path fill="#f3f3f3" d="m35.929256 114.71807l0 -3.859375l9.96875 0l0 9.125q-1.453125 1.40625 -4.21875 2.484375q-2.75 1.0625 -5.578125 1.0625q-3.59375 0 -6.265625 -1.5q-2.671875 -1.515625 -4.015625 -4.3125q-1.34375 -2.8125 -1.34375 -6.109375q0 -3.578125 1.5 -6.359375q1.5 -2.78125 4.390625 -4.265625q2.203125 -1.140625 5.484375 -1.140625q4.265625 0 6.65625 1.796875q2.40625 1.78125 3.09375 4.9375l-4.59375 0.859375q-0.484375 -1.6875 -1.828125 -2.65625q-1.328125 -0.984375 -3.328125 -0.984375q-3.03125 0 -4.828125 1.921875q-1.78125 1.921875 -1.78125 5.703125q0 4.078125 1.8125 6.125q1.8125 2.03125 4.75 2.03125q1.453125 0 2.90625 -0.5625q1.46875 -0.578125 2.515625 -1.390625l0 -2.90625l-5.296875 0zm14.203125 8.421875l0 -22.90625l4.390625 0l0 22.90625l-4.390625 0zm7.875 -8.53125q0 -2.1875 1.078125 -4.234375q1.078125 -2.046875 3.046875 -3.125q1.9843788 -1.078125 4.421879 -1.078125q3.765625 0 6.171875 2.453125q2.40625 2.4375 2.40625 6.171875q0 3.765625 -2.4375 6.25q-2.421875 2.46875 -6.109375 2.46875q-2.28125 0 -4.359379 -1.03125q-2.0625 -1.03125 -3.140625 -3.015625q-1.078125 -2.0 -1.078125 -4.859375zm4.5 0.234375q0 2.46875 1.171875 3.78125q1.1718788 1.3125 2.8906288 1.3125q1.71875 0 2.875 -1.3125q1.171875 -1.3125 1.171875 -3.8125q0 -2.4375 -1.171875 -3.75q-1.15625 -1.3125 -2.875 -1.3125q-1.71875 0 -2.8906288 1.3125q-1.171875 1.3125 -1.171875 3.78125zm15.875004 8.296875l0 -22.90625l4.390625 0l0 8.25q2.03125 -2.3125 4.8125 -2.3125q3.03125 0 5.015625 2.203125q1.984375 2.1875 1.984375 6.296875q0 4.25 -2.03125 6.546875q-2.015625 2.296875 -4.90625 2.296875q-1.421875 0 -2.8125 -0.703125q-1.375 -0.71875 -2.375 -2.109375l0 2.4375l-4.078125 0zm4.359375 -8.65625q0 2.578125 0.8125 3.8125q1.140625 1.75 3.03125 1.75q1.453125 0 2.46875 -1.234375q1.03125 -1.25 1.03125 -3.921875q0 -2.84375 -1.03125 -4.09375q-1.03125 -1.265625 -2.640625 -1.265625q-1.578125 0 -2.625 1.234375q-1.046875 1.21875 -1.046875 3.71875zm18.65625 -2.875l-3.984375 -0.71875q0.671875 -2.40625 2.3125 -3.5625q1.640625 -1.15625 4.875 -1.15625q2.9375 0 4.375 0.703125q1.4375 0.6875 2.015625 1.765625q0.59375 1.0625 0.59375 3.921875l-0.046875 5.125q0 2.1875 0.203125 3.234375q0.21875 1.03125 0.796875 2.21875l-4.34375 0q-0.171875 -0.4375 -0.421875 -1.296875q-0.109375 -0.390625 -0.15625 -0.515625q-1.125 1.09375 -2.40625 1.640625q-1.28125 0.546875 -2.734375 0.546875q-2.5625 0 -4.046875 -1.390625q-1.46875 -1.390625 -1.46875 -3.515625q0 -1.40625 0.671875 -2.5q0.671875 -1.109375 1.875 -1.6875q1.21875 -0.59375 3.5 -1.03125q3.078125 -0.578125 4.265625 -1.078125l0 -0.4375q0 -1.265625 -0.625 -1.796875q-0.625 -0.546875 -2.359375 -0.546875q-1.171875 0 -1.828125 0.46875q-0.65625 0.453125 -1.0625 1.609375zm5.875 3.5625q-0.84375 0.28125 -2.671875 0.671875q-1.828125 0.390625 -2.390625 0.765625q-0.859375 0.609375 -0.859375 1.546875q0 0.921875 0.6875 1.59375q0.6875 0.671875 1.75 0.671875q1.1875 0 2.265625 -0.78125q0.796875 -0.59375 1.046875 -1.453125q0.171875 -0.5625 0.171875 -2.140625l0 -0.875zm8.640625 7.96875l0 -22.90625l4.390625 0l0 22.90625l-4.390625 0zm17.671875 0l0 -22.90625l4.625 0l0 22.90625l-4.625 0zm7.984375 -8.53125q0 -2.1875 1.078125 -4.234375q1.078125 -2.046875 3.046875 -3.125q1.984375 -1.078125 4.421875 -1.078125q3.765625 0 6.171875 2.453125q2.40625 2.4375 2.40625 6.171875q0 3.765625 -2.4375 6.25q-2.421875 2.46875 -6.109375 2.46875q-2.28125 0 -4.359375 -1.03125q-2.0625 -1.03125 -3.140625 -3.015625q-1.078125 -2.0 -1.078125 -4.859375zm4.5 0.234375q0 2.46875 1.171875 3.78125q1.171875 1.3125 2.890625 1.3125q1.71875 0 2.875 -1.3125q1.171875 -1.3125 1.171875 -3.8125q0 -2.4375 -1.171875 -3.75q-1.15625 -1.3125 -2.875 -1.3125q-1.71875 0 -2.890625 1.3125q-1.171875 1.3125 -1.171875 3.78125zm21.25 8.296875l0 -19.03125l-6.796875 0l0 -3.875l18.203125 0l0 3.875l-6.78125 0l0 19.03125l-4.625 0zm23.296875 0l0 -22.90625l9.734375 0q3.671875 0 5.328125 0.625q1.671875 0.609375 2.671875 2.1875q1.0 1.578125 1.0 3.609375q0 2.578125 -1.515625 4.265625q-1.515625 1.671875 -4.53125 2.109375q1.5 0.875 2.46875 1.921875q0.984375 1.046875 2.640625 3.71875l2.796875 4.46875l-5.53125 0l-3.34375 -4.984375q-1.78125 -2.671875 -2.4375 -3.359375q-0.65625 -0.703125 -1.390625 -0.953125q-0.734375 -0.265625 -2.328125 -0.265625l-0.9375 0l0 9.5625l-4.625 0zm4.625 -13.21875l3.421875 0q3.328125 0 4.15625 -0.28125q0.828125 -0.28125 1.296875 -0.96875q0.46875 -0.6875 0.46875 -1.71875q0 -1.15625 -0.625 -1.859375q-0.609375 -0.71875 -1.734375 -0.90625q-0.5625 -0.078125 -3.375 -0.078125l-3.609375 0l0 5.8125zm28.046875 7.9375l4.375 0.734375q-0.84375 2.40625 -2.671875 3.671875q-1.8125 1.25 -4.546875 1.25q-4.328125 0 -6.40625 -2.828125q-1.640625 -2.265625 -1.640625 -5.71875q0 -4.125 2.15625 -6.453125q2.15625 -2.34375 5.453125 -2.34375q3.703125 0 5.84375 2.453125q2.140625 2.4375 2.046875 7.484375l-11.0 0q0.046875 1.953125 1.0625 3.046875q1.015625 1.078125 2.53125 1.078125q1.03125 0 1.734375 -0.5625q0.703125 -0.5625 1.0625 -1.8125zm0.25 -4.4375q-0.046875 -1.90625 -0.984375 -2.890625q-0.9375 -1.0 -2.28125 -1.0q-1.4375 0 -2.375 1.046875q-0.9375 1.046875 -0.921875 2.84375l6.5625 0zm12.5 9.71875l-6.6875 -16.59375l4.609375 0l3.125 8.46875l0.90625 2.828125q0.359375 -1.078125 0.453125 -1.421875q0.21875 -0.703125 0.46875 -1.40625l3.15625 -8.46875l4.515625 0l-6.59375 16.59375l-3.953125 0zm22.84375 -5.28125l4.375 0.734375q-0.84375 2.40625 -2.671875 3.671875q-1.8125 1.25 -4.546875 1.25q-4.328125 0 -6.40625 -2.828125q-1.640625 -2.265625 -1.640625 -5.71875q0 -4.125 2.15625 -6.453125q2.15625 -2.34375 5.453125 -2.34375q3.703125 0 5.84375 2.453125q2.140625 2.4375 2.046875 7.484375l-11.0 0q0.046875 1.953125 1.0625 3.046875q1.015625 1.078125 2.53125 1.078125q1.03125 0 1.734375 -0.5625q0.703125 -0.5625 1.0625 -1.8125zm0.25 -4.4375q-0.046875 -1.90625 -0.984375 -2.890625q-0.9375 -1.0 -2.28125 -1.0q-1.4375 0 -2.375 1.046875q-0.9375 1.046875 -0.921875 2.84375l6.5625 0zm23.03125 9.71875l-4.390625 0l0 -8.46875q0 -2.6875 -0.28125 -3.46875q-0.28125 -0.796875 -0.921875 -1.234375q-0.625 -0.4375 -1.515625 -0.4375q-1.140625 0 -2.046875 0.625q-0.90625 0.625 -1.25 1.65625q-0.328125 1.03125 -0.328125 3.8125l0 7.515625l-4.390625 0l0 -16.59375l4.078125 0l0 2.4375q2.171875 -2.8125 5.46875 -2.8125q1.453125 0 2.65625 0.53125q1.203125 0.515625 1.8125 1.328125q0.625 0.8125 0.859375 1.84375q0.25 1.03125 0.25 2.953125l0 10.3125zm15.375 0l0 -2.484375q-0.90625 1.328125 -2.390625 2.09375q-1.46875 0.765625 -3.109375 0.765625q-1.671875 0 -3.0 -0.734375q-1.328125 -0.734375 -1.921875 -2.0625q-0.59375 -1.328125 -0.59375 -3.671875l0 -10.5l4.390625 0l0 7.625q0 3.5 0.234375 4.296875q0.25 0.78125 0.890625 1.25q0.640625 0.453125 1.625 0.453125q1.125 0 2.015625 -0.609375q0.890625 -0.625 1.21875 -1.53125q0.328125 -0.921875 0.328125 -4.484375l0 -7.0l4.390625 0l0 16.59375l-4.078125 0zm18.234375 -5.28125l4.375 0.734375q-0.84375 2.40625 -2.671875 3.671875q-1.8125 1.25 -4.546875 1.25q-4.328125 0 -6.40625 -2.828125q-1.640625 -2.265625 -1.640625 -5.71875q0 -4.125 2.15625 -6.453125q2.15625 -2.34375 5.453125 -2.34375q3.703125 0 5.84375 2.453125q2.140625 2.4375 2.046875 7.484375l-11.0 0q0.046875 1.953125 1.0625 3.046875q1.015625 1.078125 2.53125 1.078125q1.03125 0 1.734375 -0.5625q0.703125 -0.5625 1.0625 -1.8125zm0.25 -4.4375q-0.046875 -1.90625 -0.984375 -2.890625q-0.9375 -1.0 -2.28125 -1.0q-1.4375 0 -2.375 1.046875q-0.9375 1.046875 -0.921875 2.84375l6.5625 0z" fill-rule="nonzero"></path></g></svg>

